<svg xmlns="http://www.w3.org/2000/svg" width="570" height="327.854" viewBox="0 0 570 327.854">
  <g id="Typescript_development_banner" transform="translate(-813.172 -175)">
    <g id="Kotlin_app_banner" transform="translate(-4 6)">
      <g id="Group_259752" data-name="Group 259752" transform="translate(774.817 118.302)">
        <g id="Background_Complete" data-name="Background Complete" transform="translate(42.355 50.698)">
          <g id="Group_259624" data-name="Group 259624" transform="translate(0 0)">
            <path id="Path_112897" data-name="Path 112897" d="M311.4,169.6l-11.477.244-5.825.1c-1.946.041-3.9.032-5.854.048l-.388,0,0-.393-.047-9.785,0-.439.439,0,11.578.055c3.859,0,7.719.1,11.578.143l.241,0,0,.235c-.017,1.661-.075,3.312-.115,4.944Zm0,0-.124-4.944c-.039-1.628-.1-3.24-.115-4.841l.239.239c-3.859.045-7.719.139-11.578.143l-11.578.055.436-.437-.047,9.785-.389-.39c1.908.016,3.811.007,5.723.048l5.754.1Z" transform="translate(-73.166 -64.342)" fill="#dbe8f3"/>
            <path id="Path_112898" data-name="Path 112898" d="M296.634,183.709l-11.478.244-5.825.1c-1.947.041-3.9.032-5.855.048l-.388,0,0-.393-.046-9.785,0-.439.439,0,11.578.054c3.86,0,7.719.1,11.578.143l.241,0,0,.236c-.016,1.661-.074,3.312-.114,4.944Zm0,0-.124-4.944c-.04-1.629-.1-3.24-.115-4.841l.238.239c-3.859.045-7.718.139-11.578.143l-11.578.054.436-.436-.046,9.785-.39-.39c1.908.016,3.811.007,5.724.048l5.753.1Z" transform="translate(-71.312 -66.113)" fill="#dbe8f3"/>
            <path id="Path_112899" data-name="Path 112899" d="M326.177,183.709l-11.477.244-5.825.1c-1.946.041-3.9.032-5.854.048l-.388,0,0-.393-.047-9.785,0-.439.439,0,11.578.054c3.859,0,7.718.1,11.578.143l.241,0,0,.236c-.017,1.661-.075,3.312-.115,4.944Zm0,0-.124-4.944c-.039-1.629-.1-3.24-.115-4.841l.239.239c-3.86.045-7.719.139-11.578.143l-11.578.054.436-.436-.047,9.785-.389-.39c1.907.016,3.81.007,5.723.048l5.753.1Z" transform="translate(-75.021 -66.113)" fill="#dbe8f3"/>
            <path id="Path_112900" data-name="Path 112900" d="M95.493,243.639l-11.477.243-5.825.1c-1.947.041-3.9.033-5.855.048l-.388,0,0-.393-.047-9.785,0-.439.439,0,11.578.055c3.859,0,7.719.1,11.578.143l.241,0,0,.236c-.016,1.661-.075,3.312-.115,4.944Zm0,0-.124-4.944c-.039-1.629-.1-3.24-.115-4.841l.239.239c-3.859.045-7.719.139-11.578.143l-11.578.054.436-.436-.046,9.785-.39-.39c1.908.016,3.811.007,5.723.048l5.754.1Z" transform="translate(-46.063 -73.636)" fill="#dbe8f3"/>
            <path id="Path_112901" data-name="Path 112901" d="M534.475,169.591,523,169.835l-5.825.1c-1.946.041-3.9.032-5.855.048l-.387,0,0-.393-.047-9.785,0-.439.439,0,11.579.055c3.859,0,7.718.1,11.578.143l.241,0,0,.235c-.017,1.661-.075,3.312-.115,4.944Zm0,0-.124-4.944c-.039-1.629-.1-3.24-.115-4.841l.239.239c-3.86.045-7.719.139-11.578.143l-11.579.055.437-.437-.047,9.785-.39-.39c1.908.016,3.811.007,5.724.048l5.753.1Z" transform="translate(-101.168 -64.341)" fill="#dbe8f3"/>
            <path id="Path_112904" data-name="Path 112904" d="M65.95,60.923l-11.477.244-5.825.1c-1.947.041-3.9.033-5.855.048l-.387,0,0-.394-.047-9.784,0-.439.438,0,11.579.055c3.859,0,7.718.1,11.578.143l.241,0,0,.236c-.017,1.66-.075,3.311-.115,4.943Zm0,0-.124-4.943c-.039-1.629-.1-3.24-.115-4.841l.239.239c-3.86.045-7.719.138-11.578.143l-11.579.055.437-.436-.047,9.784-.39-.389c1.908.015,3.811.007,5.724.048l5.753.1Z" transform="translate(-42.355 -50.7)" fill="#dbe8f3"/>
          </g>
          <g id="Group_259629" data-name="Group 259629" transform="translate(114.446 81.903)">
            <path id="Path_112909" data-name="Path 112909" d="M197.345,146.469c0-.97.129-3.557.129-4.656,0-4.722-1.682-6.857-6.079-6.986-2.071-.129-3.3-1.358-3.3-3.1s1.228-2.976,3.3-3.1c4.4-.194,6.079-2.264,6.079-7.051,0-1.1-.129-3.685-.129-4.656,0-6.275,2.651-10.284,12.676-12.483a2.794,2.794,0,0,1,1.747,5.3c-6.273,1.94-7.18,3.946-7.18,8.343,0,1.294.13,3.428.13,4.786,0,5.045-2.458,7.5-6.728,8.861,4.335,1.422,6.728,3.815,6.728,8.86,0,1.359-.13,3.493-.13,4.787,0,4.4.906,6.4,7.18,8.343a2.795,2.795,0,0,1-1.747,5.3C200,156.818,197.345,152.808,197.345,146.469Z" transform="translate(-188.096 -104.336)" fill="#dbe8f3"/>
            <path id="Path_112910" data-name="Path 112910" d="M244.133,116.913c0,.97-.129,3.557-.129,4.656,0,4.787,1.746,6.857,6.144,7.051,2,.129,3.234,1.357,3.234,3.1s-1.23,2.975-3.234,3.1c-4.4.129-6.144,2.264-6.144,6.986,0,1.1.129,3.686.129,4.656,0,6.339-2.652,10.349-12.676,12.548a2.714,2.714,0,0,1-3.557-2.652,2.687,2.687,0,0,1,1.876-2.652c6.21-1.94,7.115-3.946,7.115-8.343,0-1.294-.13-3.428-.13-4.787,0-5.045,2.458-7.5,6.726-8.86-4.334-1.423-6.726-3.817-6.726-8.861,0-1.358.13-3.492.13-4.786,0-4.4-.906-6.4-7.115-8.343a2.687,2.687,0,0,1-1.876-2.652,2.714,2.714,0,0,1,3.557-2.652C241.481,106.629,244.133,110.638,244.133,116.913Z" transform="translate(-196.984 -104.336)" fill="#dbe8f3"/>
          </g>
          <g id="Group_259630" data-name="Group 259630" transform="translate(476.035 101.422)">
            <path id="Path_112911" data-name="Path 112911" d="M611.94,206.841a2.965,2.965,0,0,1-2.071,5.083,3.14,3.14,0,0,1-2.165-.847l-13.226-13.414c-.142-.047-.188-.141-.236-.282a.662.662,0,0,0-.141-.094,1.27,1.27,0,0,1-.142-.376.255.255,0,0,1-.141-.188c-.046-.094-.046-.236-.094-.282,0-.142-.094-.189-.094-.236v-.329c0-.094-.046-.142-.046-.283,0-.046.046-.187.046-.234v-.33c0-.094.094-.142.094-.189.047-.141.047-.234.094-.376,0-.047.048-.047.048-.094a3.29,3.29,0,0,1,.234-.424.092.092,0,0,1,.094-.094.878.878,0,0,1,.283-.329L607.7,180.106a3.072,3.072,0,0,1,4.236,0,2.984,2.984,0,0,1,0,4.236l-11.155,11.248Z" transform="translate(-593.585 -179.26)" fill="#dbe8f3"/>
            <path id="Path_112912" data-name="Path 112912" d="M628.269,208.357l11.531-27.44a2.612,2.612,0,0,1,3.437-1.364,2.54,2.54,0,0,1,1.318,3.341l-11.532,27.487a2.609,2.609,0,0,1-2.4,1.553,2.242,2.242,0,0,1-.94-.188A2.543,2.543,0,0,1,628.269,208.357Z" transform="translate(-597.912 -179.27)" fill="#dbe8f3"/>
            <path id="Path_112913" data-name="Path 112913" d="M670.284,197.285a.046.046,0,0,1-.046.047,2.2,2.2,0,0,1-.33.33l-13.225,13.414a3.07,3.07,0,0,1-4.236,0,2.983,2.983,0,0,1,0-4.236l11.155-11.25-11.155-11.248a2.984,2.984,0,0,1,0-4.236,3.072,3.072,0,0,1,4.236,0l13.225,13.414a2.235,2.235,0,0,1,.33.329c.046,0,.046.094.046.094a3.975,3.975,0,0,1,.235.424c0,.046.048.046.048.094a2.181,2.181,0,0,0,.141.423c0,.047.046.047.046.142v.33c0,.047.046.188.046.234s-.046.189-.046.236v.376c0,.047-.046.047-.046.094a4.217,4.217,0,0,0-.141.424c0,.047-.048.047-.048.141C670.473,196.957,670.378,197.1,670.284,197.285Z" transform="translate(-600.863 -179.26)" fill="#dbe8f3"/>
          </g>
          <path id="Path_112914" data-name="Path 112914" d="M573.921,128.047A11.287,11.287,0,0,1,563.475,139.3v.031H499.559a13.265,13.265,0,0,1-1.24-26.472,22.348,22.348,0,0,1,43.312-6.99,13.1,13.1,0,0,1,5.931-1.4A13.26,13.26,0,0,1,560.8,116.912a11.006,11.006,0,0,1,1.835-.15A11.288,11.288,0,0,1,573.921,128.047Z" transform="translate(-69.082 -57.788)" fill="#dbe8f3"/>
          <g id="Group_259631" data-name="Group 259631" transform="translate(35.881 31.464)">
            <path id="Path_112915" data-name="Path 112915" d="M651.912,302.879l7.252-11.691-3.6-2.232a3.258,3.258,0,0,1-1.5-3.076,18.993,18.993,0,0,0,.065-2.008,3.3,3.3,0,0,1,1.706-3.006l3.711-1.99-6.5-12.129-3.711,1.99a3.212,3.212,0,0,1-3.362-.182,19.25,19.25,0,0,0-1.863-1.153,3.217,3.217,0,0,1-1.666-2.936l.134-4.21-13.751-.427-.128,4.225a3.227,3.227,0,0,1-1.866,2.823q-.483.226-.956.479t-.928.531a3.215,3.215,0,0,1-3.369,0l-3.606-2.234-7.252,11.691,3.612,2.242a3.252,3.252,0,0,1,1.49,3.072,19.075,19.075,0,0,0-.067,2,3.3,3.3,0,0,1-1.706,3l-3.713,1.991,6.5,12.128,3.713-1.991a3.3,3.3,0,0,1,3.445.24,18.914,18.914,0,0,0,1.705,1.051,3.252,3.252,0,0,1,1.736,2.941l-.13,4.25,13.75.427.131-4.221a3.268,3.268,0,0,1,1.911-2.836q.459-.216.914-.46t.881-.5a3.278,3.278,0,0,1,3.431-.023Zm-10.392-9.459a11.272,11.272,0,1,1,3.974-13.14A11.27,11.27,0,0,1,641.52,293.419Z" transform="translate(-149.534 -108.415)" fill="#dbe8f3"/>
            <path id="Path_112916" data-name="Path 112916" d="M567.982,335.934l8.348-4.817-1.476-2.555a2.291,2.291,0,0,1,.081-2.4,13.36,13.36,0,0,0,.721-1.248,2.291,2.291,0,0,1,2.037-1.268h2.951V314h-2.951a2.29,2.29,0,0,1-2.037-1.267,13.363,13.363,0,0,0-.721-1.249,2.293,2.293,0,0,1-.081-2.4l1.476-2.554-8.348-4.817L566.5,304.28a2.291,2.291,0,0,1-2.126,1.122q-.353-.017-.71-.017c-.237,0-.474.006-.709.017a2.283,2.283,0,0,1-2.117-1.115l-1.487-2.574-8.349,4.817,1.478,2.561a2.289,2.289,0,0,1-.085,2.4,13.814,13.814,0,0,0-.72,1.243A2.289,2.289,0,0,1,549.644,314h-2.951v9.641h2.951a2.29,2.29,0,0,1,2.036,1.266,13.677,13.677,0,0,0,.72,1.242,2.291,2.291,0,0,1,.085,2.4l-1.478,2.562,8.349,4.817,1.478-2.562a2.29,2.29,0,0,1,2.121-1.118c.236.012.475.018.714.018s.475-.006.71-.018a2.3,2.3,0,0,1,2.128,1.122Zm-4.314-9.215a7.895,7.895,0,1,1,7.9-7.891A7.889,7.889,0,0,1,563.668,326.718Z" transform="translate(-141.545 -113.673)" fill="#dbe8f3"/>
            <path id="Path_112917" data-name="Path 112917" d="M85.946,100.818a2.3,2.3,0,0,1,1.122,2.128c-.012.236-.018.472-.018.71s.006.478.018.714a2.288,2.288,0,0,1-1.118,2.12l-2.563,1.479,4.817,8.349,2.562-1.478a2.293,2.293,0,0,1,2.4.085,13.549,13.549,0,0,0,1.243.72,2.29,2.29,0,0,1,1.265,2.036v2.95h9.641v-2.95a2.289,2.289,0,0,1,1.265-2.036,13.784,13.784,0,0,0,1.243-.72,2.291,2.291,0,0,1,2.4-.085l2.562,1.478,4.817-8.349-2.574-1.487a2.283,2.283,0,0,1-1.115-2.117c.011-.235.017-.472.017-.709s-.006-.474-.017-.71a2.294,2.294,0,0,1,1.122-2.126l2.567-1.478-4.817-8.348-2.555,1.476a2.293,2.293,0,0,1-2.4-.081,13.377,13.377,0,0,0-1.249-.721,2.289,2.289,0,0,1-1.267-2.037V86.68H95.677v2.95a2.29,2.29,0,0,1-1.268,2.037,13.362,13.362,0,0,0-1.248.721,2.294,2.294,0,0,1-2.4.081L88.2,90.994l-4.817,8.348Zm14.548-5.061a7.9,7.9,0,1,1-7.891,7.9A7.9,7.9,0,0,1,100.493,95.756Z" transform="translate(-42.387 -80.68)" fill="#dbe8f3"/>
          </g>
        </g>
        <g id="Chair_2" data-name="Chair 2" transform="translate(339.608 259.002)">
          <g id="Group_259632" data-name="Group 259632">
            <path id="Path_112918" data-name="Path 112918" d="M382.277,402.456h97.9L460.659,288.905H387.45Z" transform="translate(-382.277 -288.905)" fill="#bbd5eb"/>
            <path id="Path_112919" data-name="Path 112919" d="M382.277,402.456h8.584l4.817-113.551H387.45Z" transform="translate(-382.277 -288.905)" fill="#60a6df"/>
          </g>
        </g>
        <g id="Chair_1" data-name="Chair 1" transform="translate(230.878 259.002)">
          <g id="Group_259633" data-name="Group 259633">
            <path id="Path_112920" data-name="Path 112920" d="M355.841,402.456h-97.9L277.46,288.905h73.208Z" transform="translate(-257.94 -288.905)" fill="#bbd5eb"/>
            <path id="Path_112921" data-name="Path 112921" d="M367.971,402.456h-8.584L354.57,288.905H362.8Z" transform="translate(-270.069 -288.905)" fill="#60a6df"/>
          </g>
        </g>
        <g id="Windows" transform="translate(89.433 61.75)">
          <g id="Group_259639" data-name="Group 259639" transform="translate(379.771 132.432)">
            <g id="Group_259636" data-name="Group 259636">
              <g id="Group_259634" data-name="Group 259634">
                <rect id="Rectangle_158964" data-name="Rectangle 158964" width="90.155" height="57.51" transform="translate(0.57 0.57)" fill="#fff"/>
                <path id="Path_112922" data-name="Path 112922" d="M621.772,273.43H530.477V214.78h91.295Zm-90.155-1.14h89.016v-56.37H531.616Z" transform="translate(-530.477 -214.78)" fill="#dbe8f3"/>
              </g>
              <g id="Group_259635" data-name="Group 259635">
                <rect id="Rectangle_158965" data-name="Rectangle 158965" width="90.155" height="10.876" transform="translate(0.57 0.57)" fill="#60a6df"/>
                <path id="Path_112923" data-name="Path 112923" d="M621.772,226.8H530.477V214.78h91.295Zm-90.155-1.139h89.016v-9.736H531.616Z" transform="translate(-530.477 -214.78)" fill="#dbe8f3"/>
              </g>
            </g>
            <g id="Group_259637" data-name="Group 259637" transform="translate(5.305 3.349)">
              <path id="Path_112924" data-name="Path 112924" d="M542.018,221.347a2.738,2.738,0,1,1-2.737-2.737A2.737,2.737,0,0,1,542.018,221.347Z" transform="translate(-536.543 -218.61)" fill="#0271a6"/>
              <path id="Path_112925" data-name="Path 112925" d="M554.8,221.347a2.737,2.737,0,1,1-2.738-2.737A2.737,2.737,0,0,1,554.8,221.347Z" transform="translate(-538.147 -218.61)" fill="#ebebeb"/>
              <path id="Path_112926" data-name="Path 112926" d="M567.581,221.347a2.737,2.737,0,1,1-2.737-2.737A2.737,2.737,0,0,1,567.581,221.347Z" transform="translate(-539.752 -218.61)" fill="#fff"/>
            </g>
          </g>
          <g id="Group_259645" data-name="Group 259645" transform="translate(0 138.245)">
            <g id="Group_259642" data-name="Group 259642">
              <g id="Group_259640" data-name="Group 259640">
                <rect id="Rectangle_158966" data-name="Rectangle 158966" width="90.155" height="57.51" transform="translate(0.569 0.569)" fill="#fff"/>
                <path id="Path_112930" data-name="Path 112930" d="M187.485,280.077H96.191V221.428h91.294ZM97.33,278.938h89.015v-56.37H97.33Z" transform="translate(-96.191 -221.428)" fill="#ebebeb"/>
              </g>
              <g id="Group_259641" data-name="Group 259641">
                <rect id="Rectangle_158967" data-name="Rectangle 158967" width="90.155" height="10.876" transform="translate(0.569 0.569)" fill="#60a6df"/>
                <path id="Path_112931" data-name="Path 112931" d="M187.485,233.442H96.191V221.428h91.294ZM97.33,232.3h89.015v-9.735H97.33Z" transform="translate(-96.191 -221.428)" fill="#ebebeb"/>
              </g>
            </g>
            <g id="Group_259643" data-name="Group 259643" transform="translate(5.304 3.349)">
              <path id="Path_112932" data-name="Path 112932" d="M107.731,228a2.738,2.738,0,1,1-2.737-2.737A2.737,2.737,0,0,1,107.731,228Z" transform="translate(-102.256 -225.258)" fill="#a6a6a6"/>
              <path id="Path_112933" data-name="Path 112933" d="M120.513,228a2.738,2.738,0,1,1-2.738-2.737A2.737,2.737,0,0,1,120.513,228Z" transform="translate(-103.86 -225.258)" fill="#ebebeb"/>
              <path id="Path_112934" data-name="Path 112934" d="M133.3,228a2.738,2.738,0,1,1-2.738-2.737A2.737,2.737,0,0,1,133.3,228Z" transform="translate(-105.465 -225.258)" fill="#fff"/>
            </g>
          </g>
          <g id="Group_259652" data-name="Group 259652" transform="translate(145.617)">
            <g id="Group_259648" data-name="Group 259648">
              <g id="Group_259646" data-name="Group 259646">
                <rect id="Rectangle_158968" data-name="Rectangle 158968" width="195.712" height="123.478" transform="translate(0.57 0.569)" fill="#0271a6"/>
                <path id="Path_112938" data-name="Path 112938" d="M459.562,187.955H262.711V63.338H459.562Zm-195.711-1.139H458.423V64.477H263.851Z" transform="translate(-262.711 -63.338)" fill="#ebebeb"/>
              </g>
              <g id="Group_259647" data-name="Group 259647">
                <rect id="Rectangle_158969" data-name="Rectangle 158969" width="195.712" height="10.876" transform="translate(0.57 0.569)" fill="#60a6df"/>
                <path id="Path_112939" data-name="Path 112939" d="M459.562,75.353H262.711V63.338H459.562ZM263.851,74.214H458.423V64.477H263.851Z" transform="translate(-262.711 -63.338)" fill="#ebebeb"/>
              </g>
            </g>
            <g id="Group_259649" data-name="Group 259649" transform="translate(5.305 3.349)">
              <path id="Path_112940" data-name="Path 112940" d="M274.251,69.905a2.737,2.737,0,1,1-2.737-2.737A2.737,2.737,0,0,1,274.251,69.905Z" transform="translate(-268.777 -67.168)" fill="#0271a6"/>
              <path id="Path_112941" data-name="Path 112941" d="M287.033,69.905a2.737,2.737,0,1,1-2.737-2.737A2.737,2.737,0,0,1,287.033,69.905Z" transform="translate(-270.381 -67.168)" fill="#ebebeb"/>
              <path id="Path_112942" data-name="Path 112942" d="M299.815,69.905a2.737,2.737,0,1,1-2.737-2.737A2.737,2.737,0,0,1,299.815,69.905Z" transform="translate(-271.986 -67.168)" fill="#fff"/>
            </g>
            <g id="Group_259651" data-name="Group 259651" transform="translate(12.237 22.81)">
              <rect id="Rectangle_158970" data-name="Rectangle 158970" width="5.815" height="2.124" transform="translate(0 10.271)" fill="#ebebeb"/>
              <rect id="Rectangle_158971" data-name="Rectangle 158971" width="93.915" height="2.124" transform="translate(10.053 10.271)" fill="#ebebeb"/>
              <rect id="Rectangle_158972" data-name="Rectangle 158972" width="11.045" height="2.124" transform="translate(107.54 10.271)" fill="#60a6df"/>
              <rect id="Rectangle_158973" data-name="Rectangle 158973" width="11.045" height="2.124" transform="translate(125.216 38.693)" fill="#ebebeb"/>
              <rect id="Rectangle_158974" data-name="Rectangle 158974" width="37.236" height="2.124" transform="translate(120.986 10.271)" fill="#a6a6a6"/>
              <rect id="Rectangle_158975" data-name="Rectangle 158975" width="5.815" height="2.124" transform="translate(5.815 15.955)" fill="#ebebeb"/>
              <rect id="Rectangle_158976" data-name="Rectangle 158976" width="43.773" height="2.124" transform="translate(15.721 15.955)" fill="#a6a6a6"/>
              <rect id="Rectangle_158977" data-name="Rectangle 158977" width="16.558" height="2.124" transform="translate(106.035 38.693)" fill="#a6a6a6"/>
              <rect id="Rectangle_158978" data-name="Rectangle 158978" width="41.809" height="2.124" transform="translate(10.053 33.008)" fill="#a6a6a6"/>
              <rect id="Rectangle_158979" data-name="Rectangle 158979" width="29.331" height="2.124" transform="translate(15.721 21.639)" fill="#60a6df"/>
              <rect id="Rectangle_158980" data-name="Rectangle 158980" width="29.331" height="2.124" transform="translate(114.926 27.324)" fill="#a6a6a6"/>
              <rect id="Rectangle_158981" data-name="Rectangle 158981" width="74.054" height="2.124" transform="translate(48.307 21.639)" fill="#a6a6a6"/>
              <rect id="Rectangle_158982" data-name="Rectangle 158982" width="92.197" height="2.124" transform="translate(10.053 38.693)" fill="#60a6df"/>
              <rect id="Rectangle_158983" data-name="Rectangle 158983" width="48.444" height="2.124" transform="translate(119.755 15.955)" fill="#60a6df"/>
              <rect id="Rectangle_158984" data-name="Rectangle 158984" width="55.111" height="2.124" transform="translate(62.242 15.955)" fill="#ebebeb"/>
              <rect id="Rectangle_158985" data-name="Rectangle 158985" width="18.825" height="2.124" transform="translate(142.706 21.639)" fill="#ebebeb"/>
              <rect id="Rectangle_158986" data-name="Rectangle 158986" width="5.815" height="2.124" transform="translate(5.815 21.639)" fill="#ebebeb"/>
              <rect id="Rectangle_158987" data-name="Rectangle 158987" width="5.815" height="2.124" transform="translate(0 27.324)" fill="#a6a6a6"/>
              <rect id="Rectangle_158988" data-name="Rectangle 158988" width="34.365" height="2.124" transform="translate(10.053 27.324)" fill="#ebebeb"/>
              <rect id="Rectangle_158989" data-name="Rectangle 158989" width="34.365" height="2.124" transform="translate(15.721 44.377)" fill="#ebebeb"/>
              <rect id="Rectangle_158990" data-name="Rectangle 158990" width="44.269" height="2.124" transform="translate(107.015 50.061)" fill="#60a6df"/>
              <rect id="Rectangle_158991" data-name="Rectangle 158991" width="61.677" height="2.124" transform="translate(52.876 44.377)" fill="#60a6df"/>
              <rect id="Rectangle_158992" data-name="Rectangle 158992" width="57.213" height="2.124" transform="translate(46.798 50.061)" fill="#ebebeb"/>
              <rect id="Rectangle_158993" data-name="Rectangle 158993" width="9.95" height="2.124" transform="translate(15.721 50.061)" fill="#a6a6a6"/>
              <rect id="Rectangle_158994" data-name="Rectangle 158994" width="64.357" height="2.124" transform="translate(54.228 33.008)" fill="#ebebeb"/>
              <rect id="Rectangle_158995" data-name="Rectangle 158995" width="41.776" height="2.124" transform="translate(120.986 33.008)" fill="#60a6df"/>
              <rect id="Rectangle_158996" data-name="Rectangle 158996" width="64.312" height="2.124" transform="translate(47.911 27.324)" fill="#60a6df"/>
              <rect id="Rectangle_158997" data-name="Rectangle 158997" width="5.815" height="2.124" transform="translate(0 33.008)" fill="#ebebeb"/>
              <rect id="Rectangle_158998" data-name="Rectangle 158998" width="5.815" height="2.124" transform="translate(0 38.693)" fill="#ebebeb"/>
              <rect id="Rectangle_158999" data-name="Rectangle 158999" width="5.815" height="2.124" transform="translate(5.815 44.377)" fill="#a6a6a6"/>
              <rect id="Rectangle_159000" data-name="Rectangle 159000" width="5.815" height="2.124" transform="translate(5.815 50.061)" fill="#ebebeb"/>
              <rect id="Rectangle_159001" data-name="Rectangle 159001" width="5.815" height="2.124" transform="translate(0 54.822)" fill="#ebebeb"/>
              <rect id="Rectangle_159002" data-name="Rectangle 159002" width="68.181" height="2.124" transform="translate(10.053 54.822)" fill="#ebebeb"/>
              <rect id="Rectangle_159003" data-name="Rectangle 159003" width="5.815" height="2.124" transform="translate(5.815 60.506)" fill="#ebebeb"/>
              <rect id="Rectangle_159004" data-name="Rectangle 159004" width="43.773" height="2.124" transform="translate(15.721 60.506)" fill="#a6a6a6"/>
              <rect id="Rectangle_159005" data-name="Rectangle 159005" width="41.809" height="2.124" transform="translate(10.053 77.56)" fill="#a6a6a6"/>
              <rect id="Rectangle_159006" data-name="Rectangle 159006" width="29.331" height="2.124" transform="translate(15.721 66.191)" fill="#60a6df"/>
              <rect id="Rectangle_159007" data-name="Rectangle 159007" width="74.054" height="2.124" transform="translate(48.307 66.191)" fill="#a6a6a6"/>
              <rect id="Rectangle_159008" data-name="Rectangle 159008" width="92.197" height="2.124" transform="translate(10.053 83.244)" fill="#60a6df"/>
              <rect id="Rectangle_159009" data-name="Rectangle 159009" width="48.444" height="2.124" transform="translate(119.755 60.506)" fill="#60a6df"/>
              <rect id="Rectangle_159010" data-name="Rectangle 159010" width="55.111" height="2.124" transform="translate(62.242 60.506)" fill="#ebebeb"/>
              <rect id="Rectangle_159011" data-name="Rectangle 159011" width="18.825" height="2.124" transform="translate(142.706 66.191)" fill="#ebebeb"/>
              <rect id="Rectangle_159012" data-name="Rectangle 159012" width="5.815" height="2.124" transform="translate(5.815 66.191)" fill="#ebebeb"/>
              <rect id="Rectangle_159013" data-name="Rectangle 159013" width="5.815" height="2.124" transform="translate(0 71.875)" fill="#a6a6a6"/>
              <rect id="Rectangle_159014" data-name="Rectangle 159014" width="34.365" height="2.124" transform="translate(10.053 71.875)" fill="#ebebeb"/>
              <rect id="Rectangle_159015" data-name="Rectangle 159015" width="64.357" height="2.124" transform="translate(54.228 77.56)" fill="#ebebeb"/>
              <rect id="Rectangle_159016" data-name="Rectangle 159016" width="64.312" height="2.124" transform="translate(47.911 71.875)" fill="#60a6df"/>
              <rect id="Rectangle_159017" data-name="Rectangle 159017" width="5.815" height="2.124" transform="translate(0 77.56)" fill="#ebebeb"/>
              <g id="Group_259650" data-name="Group 259650" transform="translate(0.479)">
                <path id="Path_112943" data-name="Path 112943" d="M280.365,94.1a.5.5,0,0,1-.351.862.536.536,0,0,1-.367-.143l-2.242-2.275c-.024-.008-.032-.024-.04-.047a.1.1,0,0,0-.024-.017.21.21,0,0,1-.024-.064.042.042,0,0,1-.024-.031c-.008-.017-.008-.04-.015-.048,0-.024-.017-.031-.017-.04V92.24c0-.016-.007-.024-.007-.047s.007-.032.007-.04V92.1c0-.016.017-.024.017-.031.007-.024.007-.04.015-.065,0-.008.008-.008.008-.016a.717.717,0,0,1,.04-.072.016.016,0,0,1,.017-.016.139.139,0,0,1,.048-.056l2.242-2.275a.52.52,0,0,1,.718,0,.5.5,0,0,1,0,.718l-1.891,1.908Z" transform="translate(-277.253 -89.423)" fill="#60a6df"/>
                <path id="Path_112944" data-name="Path 112944" d="M283.132,94.357l1.955-4.653a.442.442,0,0,1,.582-.231.43.43,0,0,1,.224.566L283.938,94.7a.445.445,0,0,1-.408.263.382.382,0,0,1-.159-.031A.432.432,0,0,1,283.132,94.357Z" transform="translate(-277.986 -89.424)" fill="#60a6df"/>
                <path id="Path_112945" data-name="Path 112945" d="M290.255,92.479a.008.008,0,0,1-.008.008.384.384,0,0,1-.057.056l-2.243,2.275a.52.52,0,0,1-.717,0,.505.505,0,0,1,0-.719l1.891-1.907-1.891-1.908a.5.5,0,0,1,0-.718.519.519,0,0,1,.717,0l2.243,2.275a.345.345,0,0,1,.057.056c.008,0,.008.016.008.016.015.032.031.048.039.072,0,.008.008.008.008.016a.377.377,0,0,0,.024.073c0,.008.008.008.008.024v.056c0,.008.009.031.009.04s-.009.031-.009.039V92.3c0,.009-.008.009-.008.017a.642.642,0,0,0-.024.072c0,.008-.008.008-.008.024S290.27,92.448,290.255,92.479Z" transform="translate(-278.487 -89.423)" fill="#60a6df"/>
              </g>
            </g>
          </g>
        </g>
        <g id="Character_2" data-name="Character 2" transform="translate(344.632 201.965)">
          <g id="Group_259694" data-name="Group 259694">
            <g id="Group_259659" data-name="Group 259659" transform="translate(6.708 0.843)">
              <path id="Path_112960" data-name="Path 112960" d="M438.589,228.333c-12.039,10.321-8.687,25.374-13.716,33.538-3.075,4.992-13.089,10.265-15.079,16.019-3.272,9.452,4.742,12.847,2.95,17.984-2.539,7.279-12.285,6.713-14.04,18.621s11.346,24.574,42.442,28,48.178-7.953,49.293-18.056-9.229-13.465-9.934-21.011c-.45-4.821,5.938-8.177,6.26-17.05s-8.323-11.758-9.562-19.293c-1.244-7.571,2.749-25.848-8.323-35.2S444.53,223.24,438.589,228.333Z" transform="translate(-396.052 -224.644)" fill="#263238"/>
              <path id="Path_112961" data-name="Path 112961" d="M439.626,229.169a25.642,25.642,0,0,0-7.993,9.221,56.113,56.113,0,0,0-4.445,12.223,33.921,33.921,0,0,1-2.414,7.319,18.752,18.752,0,0,1-4.175,5.152c-3.363,3.043-7.379,5.354-10.4,8.773-2.861,3.238-5.088,7.569-3.946,11.982.622,2.4,2.2,4.357,3.187,6.6.931,2.121,1.307,4.759-.513,6.522-1.556,1.506-3.809,2.2-5.575,3.431a19.631,19.631,0,0,0-4.538,4.4,15.215,15.215,0,0,0-2.863,11.959c1.83,9.673,10.906,15.175,19.284,18.639,1.168.484,2.343.953,3.517,1.421.181.072.336-.189.15-.272-8.409-3.763-18.167-8.181-21.4-17.581a14.191,14.191,0,0,1,1.45-12.481A17.974,17.974,0,0,1,403.4,301.8c1.691-1.25,3.644-2.015,5.364-3.2a5.716,5.716,0,0,0,2.644-5.11c-.107-2.27-1.216-4.254-2.314-6.182-1.162-2.041-2.149-4.1-1.984-6.513a12.526,12.526,0,0,1,2.488-6.214c2.616-3.707,6.492-6.14,9.965-8.946,3.5-2.824,6.292-6.08,7.568-10.467.644-2.218,1.045-4.5,1.6-6.74a59.3,59.3,0,0,1,1.855-6.146,29.331,29.331,0,0,1,6.573-10.836,16.835,16.835,0,0,1,2.569-2.109C439.833,229.266,439.729,229.1,439.626,229.169Z" transform="translate(-395.693 -225.21)" fill="#263238"/>
              <path id="Path_112962" data-name="Path 112962" d="M502.3,318.731a11.628,11.628,0,0,0-2.152-4.525c-1.082-1.37-2.389-2.529-3.587-3.792a8.839,8.839,0,0,1-2.542-4.2c-.4-1.988.436-3.894,1.369-5.6a42.239,42.239,0,0,0,2.784-5.419,19.767,19.767,0,0,0,1.184-5.8,19.974,19.974,0,0,0-3.129-11.563c-1.061-1.737-2.254-3.387-3.327-5.116a24.9,24.9,0,0,1-2.756-6.04c-1.4-4.682-1.7-9.621-2.847-14.367a74.167,74.167,0,0,0-5.05-14.1c-.053-.113-.219-.011-.165.1a64.648,64.648,0,0,1,4.416,12.74c.987,4.162,1.369,8.4,2.1,12.6a31.816,31.816,0,0,0,1.578,6.06,32.6,32.6,0,0,0,2.7,5.2c2.1,3.425,4.272,6.807,4.852,10.869a19.014,19.014,0,0,1-2.005,11.64c-1.635,3.091-3.925,6.5-2.495,10.119,1.209,3.063,4.132,4.9,6.072,7.44a12.288,12.288,0,0,1,2.1,9.828c-1.674,8.707-10.4,13.026-18.569,13.457a.2.2,0,0,0,.01.4c7.1-.084,14.829-3.206,18.159-9.854A15.046,15.046,0,0,0,502.3,318.731Z" transform="translate(-406.537 -226.341)" fill="#263238"/>
            </g>
            <g id="Group_259669" data-name="Group 259669" transform="translate(58.487 65.391)">
              <g id="Group_259662" data-name="Group 259662" transform="translate(0.449 1.831)">
                <path id="Path_112963" data-name="Path 112963" d="M456.488,316.4c7.876,31.282,15.659,55.212,24.576,61.07,7.193,4.728,17.294,8.044,27.681,10.368a258.915,258.915,0,0,0,33.667,4.81c3.486.291,6.387.472,8.446.617,5.094.326,13.435-33.31,9.827-37.413-.832-.937-4.188-1.663-8.9-2.26-15.853-1.989-47.07-2.454-48.931-4.229-1.93-1.856-17.846-24.14-31.492-41.648C461.949,295.617,452.12,299.058,456.488,316.4Z" transform="translate(-455.419 -300.552)" fill="#ffbe9d"/>
                <g id="Group_259661" data-name="Group 259661" transform="translate(85.222 52.471)">
                  <path id="Path_112964" data-name="Path 112964" d="M552.874,397.407c.634.292,9.625,4.2,15.147,5.579,4.12,1.031,16.058,3.681,17.643-.742,1.085-3.015-5.751-5.4-10.549-7.194-2.526-.945-5.69-3.438-5.015-5.064,1.179-2.845,7.689-.272,11.993,2.021,8.321,4.434,19.489,12.555,24.314,8.238,1.821-1.633-.467-4.4-3.766-7.069,5.306,3.061,10.935,5.523,13.031,3.791,1.2-.987,1.214-2.281.47-3.732,1.62.462,3.032.308,3.98-.771,1.621-1.827.7-4.4-1.24-7a2.012,2.012,0,0,0,1.495-1.062c3.368-5.574-15.073-20.54-21.306-21.774-18.338-3.651-37.618-1.362-37.618-1.362C554.522,367.232,552.859,397.395,552.874,397.407Z" transform="translate(-552.874 -360.555)" fill="#ffbe9d"/>
                  <g id="Group_259660" data-name="Group 259660" transform="translate(26.062 4.146)">
                    <path id="Path_112965" data-name="Path 112965" d="M582.721,382.189a29.66,29.66,0,0,1,12.3,4.22c4.351,2.756,7.868,6.612,11.908,9.762.109.086-.032.256-.138.166-1.9-1.636-3.988-3.086-5.96-4.645-1.924-1.522-3.815-3.117-5.841-4.5a29.414,29.414,0,0,0-12.278-4.929C582.659,382.256,582.672,382.184,582.721,382.189Z" transform="translate(-582.677 -367.417)" fill="#263238"/>
                    <path id="Path_112966" data-name="Path 112966" d="M586.268,373.226c4.825,1.13,9.77,2.27,14.287,4.366,4.944,2.295,8.891,6.186,12.767,9.928q3.493,3.371,6.833,6.894c.094.1-.037.265-.137.166q-5.905-5.8-12.154-11.244A38.89,38.89,0,0,0,594.7,375.7c-2.773-.94-5.612-1.668-8.447-2.392C586.2,373.3,586.214,373.213,586.268,373.226Z" transform="translate(-583.122 -366.292)" fill="#263238"/>
                    <path id="Path_112967" data-name="Path 112967" d="M591.824,365.3c4.677.782,8.757,1.448,12.959,3.784,5.563,3.092,11.02,8.447,12.936,10.346,2.116,2.1,4.16,4.264,6.171,6.462.082.089-.072.233-.157.145a154.139,154.139,0,0,0-14.678-13.5,30.67,30.67,0,0,0-8.107-4.857,55.348,55.348,0,0,0-9.13-2.348A.016.016,0,0,1,591.824,365.3Z" transform="translate(-583.823 -365.297)" fill="#263238"/>
                  </g>
                </g>
              </g>
              <g id="Group_259668" data-name="Group 259668">
                <g id="Group_259663" data-name="Group 259663">
                  <path id="Path_112968" data-name="Path 112968" d="M462.2,347.67,490.3,331.1s-12-19.381-22.25-28.531-14.386-1.971-12.829,11.323S462.2,347.67,462.2,347.67Z" transform="translate(-454.906 -298.459)" fill="#fec35b"/>
                </g>
                <g id="Group_259667" data-name="Group 259667" transform="translate(7.204 28.419)">
                  <g id="Group_259666" data-name="Group 259666">
                    <g id="Group_259665" data-name="Group 259665">
                      <g id="Group_259664" data-name="Group 259664">
                        <path id="Path_112969" data-name="Path 112969" d="M486.909,330.961c-4.5,2.3-16.531,8.919-23.756,14.29-.043.032.064.22.112.2,6.706-3.509,19.529-11.5,23.8-14.2C487.15,331.191,486.994,330.918,486.909,330.961Z" transform="translate(-463.144 -330.957)" fill="#263238"/>
                      </g>
                    </g>
                  </g>
                </g>
                <path id="Path_112970" data-name="Path 112970" d="M487.991,332.478l-25.791,15.2s-5.416-20.484-6.977-33.783c-1-8.581.363-14.614,4.218-15.349Z" transform="translate(-454.906 -298.47)" fill="#263238"/>
              </g>
            </g>
            <g id="Group_259671" data-name="Group 259671" transform="translate(0 63.091)">
              <path id="Path_112971" data-name="Path 112971" d="M480.953,403.225h-92.93s20.184-77.95,38.866-99.894c.417-.507.849-.984,1.281-1.431.09-.1.164-.178.254-.268a19.951,19.951,0,0,1,4.991-3.858c.328-.178.656-.343,1-.491,7.2-3.307,14.793-.567,20.276,4.127,1.743,1.49,21.439,27.115,23.181,36.888,1.5,8.626-4.32,17.893-4.32,17.893Z" transform="translate(-388.023 -295.828)" fill="#fec35b"/>
              <g id="Group_259670" data-name="Group 259670" transform="translate(48.283 57.022)">
                <path id="Path_112972" data-name="Path 112972" d="M466.534,361.036a80.554,80.554,0,0,0-11.738,2.037c-1.91.507-3.784,1.1-5.655,1.734-.933.317-1.871.6-2.814.88a12.674,12.674,0,0,1-3.023.6.071.071,0,0,0,0,.142,21.657,21.657,0,0,0,2.916-.08A20.889,20.889,0,0,0,449,365.8c1.942-.5,3.861-1.082,5.8-1.6,3.908-1.041,7.815-2.081,11.79-2.838C466.769,361.327,466.721,361.015,466.534,361.036Z" transform="translate(-443.237 -361.035)" fill="#263238"/>
                <path id="Path_112973" data-name="Path 112973" d="M478.28,364.891a86.892,86.892,0,0,0-9.825-.386c-1.641.034-3.268.163-4.9.335-.779.082-1.557.179-2.333.285-.854.116-1.695.347-2.549.451-.089.011-.088.15,0,.142.81-.073,1.634-.014,2.448-.04s1.633-.06,2.449-.087c1.636-.054,3.271-.09,4.9-.16,3.273-.139,6.533-.245,9.809-.271C478.464,365.159,478.448,364.907,478.28,364.891Z" transform="translate(-445.166 -361.469)" fill="#263238"/>
              </g>
            </g>
            <g id="Group_259681" data-name="Group 259681" transform="translate(1.843 66.371)">
              <g id="Group_259674" data-name="Group 259674" transform="translate(0 0.997)">
                <path id="Path_112974" data-name="Path 112974" d="M421.85,308.466c-17.5,24.62-40.189,67.313-28.516,75.167,19.192,12.912,72,16.387,84.066,16.689,5.209.13,12.323-34.507,8.472-38.533s-59.128-1.878-59.835-5.215c-.4-1.891,6.364-19.342,9.8-40.278C439.789,292.155,426.781,301.526,421.85,308.466Z" transform="translate(-390.131 -300.719)" fill="#ffbe9d"/>
                <g id="Group_259673" data-name="Group 259673" transform="translate(78.939 55.929)">
                  <path id="Path_112975" data-name="Path 112975" d="M487.93,368.031s15.768-1.619,26.128-2.194c5.78-.321,15.74.014,20.094,1.721,6.513,2.553,32.122,17.391,28.658,23.678-3.136,5.691-23.518-9.851-23.518-9.851s21.954,13.864,16.918,20.022-25.73-14.465-25.73-14.465,22.237,14.751,16.04,20.28c-4.684,4.178-24.479-13.443-24.479-13.443s19.026,12.811,14.395,17.315c-5.117,4.977-24.41-10.141-24.41-10.141-13.7,9.467-24.094,8.371-31.4,6.712C478.862,407.263,487.93,368.031,487.93,368.031Z" transform="translate(-480.401 -364.808)" fill="#ffbe9d"/>
                  <g id="Group_259672" data-name="Group 259672" transform="translate(5.144)">
                    <path id="Path_112976" data-name="Path 112976" d="M539.4,377.592c2.637,1.536,5.318,3.071,7.81,4.836s4.925,3.618,7.242,5.606a52.134,52.134,0,0,1,8.279,8.6c-4.711-5.315-13.535-11.77-16.028-13.534s-4.886-3.647-7.373-5.41C539.267,377.64,539.338,377.555,539.4,377.592Z" transform="translate(-492.939 -366.296)" fill="#263238"/>
                    <path id="Path_112977" data-name="Path 112977" d="M531.931,387.751c3.283,2.106,6.62,4.076,9.811,6.329s7.521,5.532,10.534,7.986c.233.188.058.6-.183.422-3.109-2.331-7.694-5.485-10.829-7.779s-6.184-4.713-9.389-6.883C531.824,387.791,531.881,387.718,531.931,387.751Z" transform="translate(-492.004 -367.571)" fill="#263238"/>
                    <path id="Path_112978" data-name="Path 112978" d="M523.94,395.315A87.184,87.184,0,0,1,538.2,406.139c.221.2-.017.253-.255.065-4.673-3.688-8.313-6.615-14.11-10.709C523.745,395.431,523.831,395.253,523.94,395.315Z" transform="translate(-490.993 -368.52)" fill="#263238"/>
                    <path id="Path_112979" data-name="Path 112979" d="M486.4,367.616c7.2-.735,28.335-2.8,35.567-2.93,6.377-.115,11.769.755,17.44,3.776,12.158,6.475,20.375,14.661,22.456,17.131,1.26,1.5,3.122,3.892,1.814,5.812-1.591,2.335-8.429.854-16.031-4.814-.274-.2-.129-.362.15-.177,10.585,7.03,14.412,5.737,15.308,4.277.579-.944-.206-2.408-.912-3.518a22.734,22.734,0,0,0-3.922-4.3,97.821,97.821,0,0,0-16.107-11.62,38.3,38.3,0,0,0-20.6-5.574c-7.411.1-27.753,2.223-35.165,2.212C486.243,367.892,486.246,367.632,486.4,367.616Z" transform="translate(-486.284 -364.676)" fill="#263238"/>
                    <path id="Path_112980" data-name="Path 112980" d="M566.088,401.3c-.595-1.929-2.18-3.584-3.453-5.1a36.743,36.743,0,0,0-5.2-5.219c-.086-.067-.207.039-.125.122a57.57,57.57,0,0,1,4.638,5.057,31.8,31.8,0,0,1,2.134,3.067,5.681,5.681,0,0,1,1.2,3.453c-.288,2.389-3.262,2.615-5.08,2.15a20.081,20.081,0,0,1-3.428-1.28,33.071,33.071,0,0,1-4.3-2.648c-.118-.088-.394-.024-.274.071,2.857,2.25,8.314,6.968,12.184,4.678A3.679,3.679,0,0,0,566.088,401.3Z" transform="translate(-494.554 -367.975)" fill="#263238"/>
                  </g>
                </g>
              </g>
              <g id="Group_259680" data-name="Group 259680" transform="translate(9.905)">
                <g id="Group_259675" data-name="Group 259675">
                  <path id="Path_112981" data-name="Path 112981" d="M401.458,333.969l30.7,11.059s7.263-21.606,7.763-35.338-7.664-12.332-16.905-2.65S401.458,333.969,401.458,333.969Z" transform="translate(-401.458 -299.579)" fill="#fec35b"/>
                </g>
                <g id="Group_259679" data-name="Group 259679" transform="translate(4.859 23.626)">
                  <g id="Group_259678" data-name="Group 259678" transform="translate(0 6.558)">
                    <g id="Group_259677" data-name="Group 259677">
                      <g id="Group_259676" data-name="Group 259676">
                        <path id="Path_112982" data-name="Path 112982" d="M433.273,343.264c-4.647-2-17.417-7.034-26.163-9.168-.052-.013-.129.19-.08.211,6.982,2.923,21.319,7.693,26.128,9.26C433.249,343.6,433.36,343.3,433.273,343.264Z" transform="translate(-407.014 -334.095)" fill="#263238"/>
                      </g>
                    </g>
                  </g>
                  <path id="Path_112983" data-name="Path 112983" d="M442.542,330.692c.012-.045-.057-.067-.078-.026-.553,1.06-1.043,2.132-1.51,3.231q.8-3.6,1.435-7.223a.067.067,0,0,0-.132-.026c-2.06,7.08-4.293,14.12-6.2,21.243-.784-.038-1.573-.09-2.351-.2a.1.1,0,0,0-.04.2c.846.206,1.685.475,2.509.757a.4.4,0,0,0,.533-.177,104.889,104.889,0,0,0,3.738-12.378c.323-.64.638-1.285.913-1.942A25.5,25.5,0,0,0,442.542,330.692Z" transform="translate(-410.35 -326.596)" fill="#263238"/>
                </g>
              </g>
            </g>
            <g id="Group_259693" data-name="Group 259693" transform="translate(45.378)">
              <path id="Path_112984" data-name="Path 112984" d="M449.323,294.194c-6.969,1.285-7.036,8.982-5.039,14.591s6.378,12.325,10.033,12.5,5.228-8.883,5.228-8.883,4.62,6.179,7.526,4.473-1.51-12.665-5.06-16.284C456.861,295.335,453.026,293.511,449.323,294.194Z" transform="translate(-440.322 -232.515)" fill="#fff"/>
              <g id="Group_259692" data-name="Group 259692">
                <g id="Group_259682" data-name="Group 259682" transform="translate(4.855 38.454)">
                  <path id="Path_112985" data-name="Path 112985" d="M445.47,294.828c.145,1.662,6.322,13.2,13.72,13.907,2.409.227,4.234-12.87,4.234-12.87l.356-.936,4.971-13.107-14.444-12.487-2.1-1.681s-1.123,3.675-2.476,8.266c-.064.212-.128.426-.193.654-.083.257-.165.5-.232.744-.211.683-.423,1.382-.62,2.081-.152.533-.3,1.049-.442,1.614s-.292,1.112-.447,1.676A90.1,90.1,0,0,0,445.47,294.828Z" transform="translate(-445.468 -267.654)" fill="#ffbe9d"/>
                  <path id="Path_112986" data-name="Path 112986" d="M450.338,275.92a28.119,28.119,0,0,0,14.054,19.008l4.971-13.107-14.444-12.487-2.1-1.681S451.691,271.329,450.338,275.92Z" transform="translate(-446.079 -267.654)" fill="#ee996f"/>
                </g>
                <g id="Group_259691" data-name="Group 259691">
                  <path id="Path_112987" data-name="Path 112987" d="M490.414,257.575c-1.267,24.568-16.126,26.583-21.424,26.3-4.809-.254-21.152-1.728-22.429-26.3s10.547-31.746,21.576-31.748S491.682,233.006,490.414,257.575Z" transform="translate(-440.738 -223.951)" fill="#ffbe9d"/>
                  <g id="Group_259688" data-name="Group 259688" transform="translate(27.537 25.614)">
                    <path id="Path_112988" data-name="Path 112988" d="M492.529,256.672a16.185,16.185,0,0,1-1.632-.471,2.747,2.747,0,0,1-1.573-.8.876.876,0,0,1,.08-1.065,2.169,2.169,0,0,1,2.171-.349,3.193,3.193,0,0,1,1.912,1.271A.934.934,0,0,1,492.529,256.672Z" transform="translate(-473.637 -253.082)" fill="#263238"/>
                    <path id="Path_112989" data-name="Path 112989" d="M474.9,255.513a16.248,16.248,0,0,0,1.683-.228,2.748,2.748,0,0,0,1.674-.559.876.876,0,0,0,.076-1.066,2.167,2.167,0,0,0-2.1-.663,3.187,3.187,0,0,0-2.079.977A.934.934,0,0,0,474.9,255.513Z" transform="translate(-471.721 -252.971)" fill="#263238"/>
                    <g id="Group_259684" data-name="Group 259684" transform="translate(0 6.541)">
                      <g id="Group_259683" data-name="Group 259683" transform="translate(1.967 0.242)">
                        <path id="Path_112990" data-name="Path 112990" d="M477.6,262.826c-.01-.064-.135.073-.136.142-.031,1.675-.349,3.589-1.891,4.069-.047.015-.046.1.01.094C477.441,266.963,477.837,264.418,477.6,262.826Z" transform="translate(-473.891 -260.988)" fill="#263238"/>
                        <path id="Path_112991" data-name="Path 112991" d="M475.956,260.742c-2.68-.339-3.163,5.047-.68,5.361C477.72,266.413,478.2,261.027,475.956,260.742Z" transform="translate(-473.655 -260.726)" fill="#263238"/>
                      </g>
                      <path id="Path_112992" data-name="Path 112992" d="M474.59,260.9c-.5.263-1.007.76-1.578.765-.662.006-1.107-.6-1.487-1.183-.039-.06-.09-.017-.1.054-.108,1.03.195,2.125,1.287,2.378,1,.231,1.8-.618,2.154-1.633C474.932,261.09,474.79,260.792,474.59,260.9Z" transform="translate(-471.406 -260.45)" fill="#263238"/>
                    </g>
                    <g id="Group_259686" data-name="Group 259686" transform="translate(14.563 7.487)">
                      <g id="Group_259685" data-name="Group 259685">
                        <path id="Path_112993" data-name="Path 112993" d="M488.318,263.356c.019-.062.122.092.114.16-.215,1.661-.182,3.6,1.273,4.3.045.022.032.1-.024.092C487.866,267.471,487.847,264.9,488.318,263.356Z" transform="translate(-488.059 -261.76)" fill="#263238"/>
                        <path id="Path_112994" data-name="Path 112994" d="M489.988,261.533c2.7.057,2.388,5.456-.115,5.4C487.411,266.883,487.724,261.485,489.988,261.533Z" transform="translate(-488.071 -261.533)" fill="#263238"/>
                      </g>
                      <path id="Path_112995" data-name="Path 112995" d="M491.472,261.994c.41.311.8.856,1.309.919.589.073,1.059-.485,1.469-1.023.043-.056.082-.009.081.063-.031,1.034-.435,2.088-1.439,2.229-.915.128-1.527-.8-1.713-1.838C491.144,262.151,491.307,261.869,491.472,261.994Z" transform="translate(-488.45 -261.574)" fill="#263238"/>
                    </g>
                    <path id="Path_112996" data-name="Path 112996" d="M476.448,277.526c.345.442.669,1.032,1.264,1.164a4.435,4.435,0,0,0,1.841-.176.058.058,0,0,1,.06.094,2.256,2.256,0,0,1-2.229.617,1.784,1.784,0,0,1-1.106-1.645C476.266,277.479,476.4,277.462,476.448,277.526Z" transform="translate(-472.017 -256.048)" fill="#263238"/>
                    <g id="Group_259687" data-name="Group 259687" transform="translate(5.578 0.466)">
                      <path id="Path_112997" data-name="Path 112997" d="M483.756,269.826s.15,2.521.06,3.7c-.01.109-4.367.659-6.016-2.381a.122.122,0,0,1,.188-.149,8.453,8.453,0,0,0,4.993,1.86c.108-.32-.4-4.309-.215-4.309a10.273,10.273,0,0,1,2.625.812c-.162-5.261-1.166-10.453-1.249-15.692a.161.161,0,0,1,.313-.052c1.438,5.367,1.757,11.416,2.064,16.845C486.565,271.134,484.211,270.063,483.756,269.826Z" transform="translate(-477.784 -253.503)" fill="#263238"/>
                    </g>
                  </g>
                  <path id="Path_112998" data-name="Path 112998" d="M447.923,258.314c6.012.579,10.18-17.584,10.667-19.82-.233,1.424-1.443,8.97-.9,9.347a5.832,5.832,0,0,0,1.925-.107h.016a18.022,18.022,0,0,1,.574-2.679c.1-.414.039.932.052,2.6.351-.049.733-.113,1.146-.162a21.953,21.953,0,0,1,1.331-5.682c.269-.69.035,2.553.348,5.455a72.823,72.823,0,0,1,16.031-.692c1.5.141,2.785.329,3.918.534.3-2.234.361-4.65.457-4.116a21.859,21.859,0,0,1,.385,4.278c.613.117,1.179.234,1.684.353.572-3.138-.264-8.376.14-7.538a22.412,22.412,0,0,1,2.021,8.178c2.1.7,2.639,1.2,2.772.651.237-1,.171-9.993-5.855-17.381-6.549-8.029-21.235-11.771-31.079-2.032,0,0-7.524,3.605-9.577,10.746S444.451,257.974,447.923,258.314Z" transform="translate(-440.332 -223.68)" fill="#263238"/>
                  <g id="Group_259690" data-name="Group 259690" transform="translate(0 26.799)">
                    <g id="Group_259689" data-name="Group 259689">
                      <path id="Path_112999" data-name="Path 112999" d="M449.726,261.417s-4.26-8.345-7.975-6.928-1.249,13,2.594,15.07a4.161,4.161,0,0,0,5.829-1.448Z" transform="translate(-439.915 -254.327)" fill="#ffbe9d"/>
                      <path id="Path_113000" data-name="Path 113000" d="M442.907,258.288a.057.057,0,0,0-.037.106c2.681,1.546,3.81,4.387,4.478,7.265-.7-1.169-1.769-1.9-3.317-1.1-.081.043-.027.169.056.164A2.558,2.558,0,0,1,446.754,266a12.383,12.383,0,0,1,1.022,2.442c.1.273.575.2.519-.106,0-.023-.01-.046-.014-.069C448.857,264.653,446.746,259.194,442.907,258.288Z" transform="translate(-440.283 -254.824)" fill="#263238"/>
                    </g>
                  </g>
                </g>
              </g>
            </g>
          </g>
        </g>
        <g id="Character_1" data-name="Character 1" transform="translate(107.996 193.865)">
          <g id="Group_259726" data-name="Group 259726">
            <g id="Group_259725" data-name="Group 259725">
              <g id="Group_259699" data-name="Group 259699" transform="translate(0 67.448)">
                <g id="Group_259697" data-name="Group 259697" transform="translate(0 0.738)">
                  <path id="Path_113001" data-name="Path 113001" d="M275.566,305.009c-6.232,27.139-18.847,61.5-28.594,68.432-7.861,5.593-49.1,15.443-51.4,15.691-5.694.575-16.938-39.645-11.036-41.279,7.437-2.059,42.781-3.159,44.792-5.223,2.087-2.159,14.949-19.577,29.512-39.755C268.888,288.931,279.433,288.169,275.566,305.009Z" transform="translate(-125.635 -292.392)" fill="#ffbe9d"/>
                  <g id="Group_259696" data-name="Group 259696" transform="translate(0 55.461)">
                    <path id="Path_113002" data-name="Path 113002" d="M191.924,394.885c-.678.344-10.308,5.186-16.263,6.913-4.443,1.288-17.331,4.652-19.234-.1-1.3-3.238,6.043-6.108,11.192-8.254,2.713-1.13,6.056-3.969,5.256-5.714-1.4-3.048-8.382.014-12.974,2.682-8.88,5.16-20.71,14.448-26.135,9.943-2.048-1.7.332-4.8,3.816-7.845-5.653,3.543-11.681,6.451-14.031,4.649-1.35-1.026-1.412-2.435-.661-4.043-1.745.567-3.288.456-4.363-.68-1.838-1.923-.942-4.762,1.069-7.67a2.2,2.2,0,0,1-1.669-1.1c-3.891-5.932,15.582-22.963,22.317-24.557,19.814-4.71,40.891-2.993,40.891-2.993C188.918,362.338,191.94,394.87,191.924,394.885Z" transform="translate(-117.419 -355.814)" fill="#ffbe9d"/>
                    <g id="Group_259695" data-name="Group 259695" transform="translate(2.015 5.071)">
                      <path id="Path_113003" data-name="Path 113003" d="M165.6,379.635a33.624,33.624,0,0,0-13.216,5.087c-5.023,3.315-8.355,7.2-12.57,11.1-.11.1.045.278.157.175,2.009-1.857,10.329-8.841,12.48-10.428a32.031,32.031,0,0,1,13.167-5.857C165.664,379.706,165.647,379.627,165.6,379.635Z" transform="translate(-122.24 -363.875)" fill="#263238"/>
                      <path id="Path_113004" data-name="Path 113004" d="M159.9,370.021c-5.207,1.424-10.543,2.863-15.377,5.326-5.289,2.7-9.429,7.09-13.5,11.318q-3.666,3.811-7.161,7.779c-.1.111.052.287.157.175q6.194-6.553,12.778-12.726a42.359,42.359,0,0,1,14.024-8.838c2.979-1.135,6.041-2.04,9.1-2.943C159.98,370.1,159.961,370,159.9,370.021Z" transform="translate(-120.24 -362.668)" fill="#263238"/>
                      <path id="Path_113005" data-name="Path 113005" d="M153.823,361.613c-5.059,1.039-9.473,1.927-13.953,4.639-5.932,3.589-11.657,9.637-13.666,11.781-2.219,2.368-4.357,4.808-6.457,7.282-.086.1.087.252.176.152a168.181,168.181,0,0,1,15.434-15.286,33.431,33.431,0,0,1,8.63-5.612,60.2,60.2,0,0,1,9.844-2.922A.018.018,0,0,0,153.823,361.613Z" transform="translate(-119.723 -361.613)" fill="#263238"/>
                    </g>
                  </g>
                </g>
                <g id="Group_259698" data-name="Group 259698" transform="translate(103.996)">
                  <path id="Path_113006" data-name="Path 113006" d="M236.343,338.567l38.014-1.613s6.9-18.836,9.443-35.559-11.707-10.719-25.819,7.29S236.343,338.567,236.343,338.567Z" transform="translate(-236.343 -291.548)" fill="#60a6df"/>
                  <path id="Path_113007" data-name="Path 113007" d="M276.746,334.027c-8.221-.21-16.469.155-24.688.682q-3.488.223-6.964.61c-.065.007-.073.1,0,.1,4.108.018,8.215-.132,12.324-.258s8.243-.286,12.359-.527c2.324-.136,4.646-.271,6.968-.455C276.84,334.175,276.849,334.03,276.746,334.027Z" transform="translate(-237.435 -296.873)" fill="#263238"/>
                  <path id="Path_113008" data-name="Path 113008" d="M264.885,304.3a1.512,1.512,0,0,1-.608.3,1.224,1.224,0,0,1-1.125-.345.405.405,0,0,0-.064-.054c-.136.163-.281.317-.417.481a.118.118,0,0,1,.037.027,1.588,1.588,0,0,0,1.724.363,1.463,1.463,0,0,0,.671-.553c.145-.218.309-.427.435-.662C265.311,303.986,265.1,304.15,264.885,304.3Zm8.374,29.665c-.055-.263-.082-.518-.155-.781a7.956,7.956,0,0,0-.154.781,1.686,1.686,0,0,1-.2.652,1.2,1.2,0,0,1-1.007.59,1.6,1.6,0,0,0-1.479.961,1.54,1.54,0,0,0-.081.871c.018.091.036.191.054.282l.209-.009c.018-.091.027-.182.045-.273a1.555,1.555,0,0,1,.219-.644,1.221,1.221,0,0,1,1.042-.554,1.541,1.541,0,0,0,1.507-1.877Zm-10.251-15.286c-.054-.254-.091-.518-.164-.771-.063.254-.1.517-.154.771a1.524,1.524,0,0,1-.191.652,1.221,1.221,0,0,1-1.016.59,1.584,1.584,0,0,0-1.469.971,1.5,1.5,0,0,0-.091.861c.054.255.091.518.164.771.073-.254.1-.517.154-.771a1.352,1.352,0,0,1,.218-.635,1.2,1.2,0,0,1,1.043-.562,1.557,1.557,0,0,0,1.506-1.878Zm-6.822,15.4a1.511,1.511,0,0,1-.6.326,1.215,1.215,0,0,1-1.134-.3,1.537,1.537,0,0,0-2.394.19c-.145.227-.309.427-.436.663.236-.136.436-.29.653-.435a1.408,1.408,0,0,1,.608-.3,1.2,1.2,0,0,1,1.125.345,1.593,1.593,0,0,0,1.751.3,1.575,1.575,0,0,0,.645-.562c.145-.227.309-.427.444-.662C256.611,333.778,256.4,333.932,256.185,334.078Zm20.5-11.558a1.466,1.466,0,0,1-.6.327,1.179,1.179,0,0,1-1.125-.3,1.6,1.6,0,0,0-1.733-.353,1.454,1.454,0,0,0-.671.553c-.145.217-.3.417-.435.652.236-.127.444-.29.662-.435a1.441,1.441,0,0,1,.6-.3,1.212,1.212,0,0,1,1.133.345,1.575,1.575,0,0,0,1.742.3,1.541,1.541,0,0,0,.653-.562c.145-.218.309-.427.435-.663C277.113,322.221,276.914,322.375,276.687,322.52Zm2.114-12.355a1.261,1.261,0,0,1-.635-.218,1.194,1.194,0,0,1-.562-1.035,1.57,1.57,0,0,0-1.016-1.452,1.5,1.5,0,0,0-.862-.054,7.6,7.6,0,0,0-.771.155c.254.073.518.1.771.154a1.421,1.421,0,0,1,.653.2,1.2,1.2,0,0,1,.589,1.007,1.61,1.61,0,0,0,.971,1.479,1.59,1.59,0,0,0,.862.081c.254-.054.517-.091.771-.164C279.318,310.246,279.055,310.219,278.8,310.164Zm-30.717,16.764a1.463,1.463,0,0,1-.635-.218,1.192,1.192,0,0,1-.554-1.043,1.085,1.085,0,0,0-.064-.381c-.181.254-.353.5-.535.744v.009a1.563,1.563,0,0,0,.925,1.116,1.433,1.433,0,0,0,.862.082c.263-.055.517-.082.78-.155C248.6,327.01,248.348,326.983,248.084,326.929Zm29.1-34.309c.018.118.037.235.064.353a1.54,1.54,0,0,1-1.506,1.878,1.232,1.232,0,0,0-1.043.554,1.39,1.39,0,0,0-.209.644c-.054.255-.09.517-.163.771-.073-.254-.1-.517-.155-.771a1.62,1.62,0,0,1,.082-.871,1.592,1.592,0,0,1,1.479-.962,1.2,1.2,0,0,0,1.007-.589,1.421,1.421,0,0,0,.2-.653,2.477,2.477,0,0,0,.045-.262Z" transform="translate(-237.592 -291.683)" fill="#dbdbdb"/>
                </g>
              </g>
              <g id="Group_259700" data-name="Group 259700" transform="translate(113.61 65.138)">
                <path id="Path_113009" data-name="Path 113009" d="M247.337,402.456h97.025c1.069-1.961-14.833-86.95-47.555-110.881-7.26-5.309-20.139-1.9-23.721,3.268C255.08,320.791,247.337,402.456,247.337,402.456Z" transform="translate(-247.337 -288.907)" fill="#60a6df"/>
                <path id="Path_113010" data-name="Path 113010" d="M288.565,330.747c.258-.073.517-.1.775-.157a1.549,1.549,0,0,1,1.88,1.508,1.214,1.214,0,0,0,.554,1.041,1.4,1.4,0,0,0,.639.215c.258.053.517.084.775.157-.258.073-.517.1-.775.157a1.521,1.521,0,0,1-.864-.083,1.6,1.6,0,0,1-.969-1.475,1.2,1.2,0,0,0-.589-1.01,1.521,1.521,0,0,0-.652-.2C289.082,330.85,288.823,330.818,288.565,330.747Zm15.074,51.3a1.52,1.52,0,0,1,.652.2,1.2,1.2,0,0,1,.589,1.01,1.6,1.6,0,0,0,.968,1.475,1.522,1.522,0,0,0,.864.083c.259-.053.517-.085.775-.157-.258-.073-.516-.1-.775-.157a1.4,1.4,0,0,1-.638-.215,1.21,1.21,0,0,1-.554-1.041,1.549,1.549,0,0,0-1.88-1.508c-.259.053-.517.084-.776.157C303.122,381.964,303.38,382,303.639,382.048Zm17.8-48.382a1.509,1.509,0,0,1,.652.2,1.2,1.2,0,0,1,.589,1.01,1.594,1.594,0,0,0,.969,1.474,1.513,1.513,0,0,0,.864.084c.258-.053.517-.085.775-.157-.258-.073-.517-.1-.775-.157a1.414,1.414,0,0,1-.639-.215,1.212,1.212,0,0,1-.554-1.042,1.548,1.548,0,0,0-1.88-1.507c-.258.052-.517.084-.775.156C320.919,333.582,321.178,333.613,321.436,333.666Zm-45.5-26.013a1.51,1.51,0,0,1,.652.2,1.2,1.2,0,0,1,.589,1.009,1.6,1.6,0,0,0,.968,1.475,1.514,1.514,0,0,0,.864.083c.259-.053.517-.084.776-.156-.259-.073-.517-.1-.776-.157a1.4,1.4,0,0,1-.638-.215,1.21,1.21,0,0,1-.554-1.041,1.549,1.549,0,0,0-1.88-1.508c-.259.053-.517.084-.776.157C275.419,307.569,275.677,307.6,275.936,307.653Zm28.007-.586a1.508,1.508,0,0,1,.652.2,1.2,1.2,0,0,1,.589,1.01,1.6,1.6,0,0,0,.968,1.474,1.506,1.506,0,0,0,.864.083c.259-.052.517-.084.776-.157-.259-.073-.517-.1-.776-.156a1.424,1.424,0,0,1-.638-.215,1.212,1.212,0,0,1-.554-1.042,1.548,1.548,0,0,0-1.88-1.507c-.259.052-.517.084-.775.156C303.426,306.984,303.684,307.014,303.942,307.068ZM269.061,352.3a1.52,1.52,0,0,1,.652.2,1.194,1.194,0,0,1,.588,1.01,1.6,1.6,0,0,0,.969,1.475,1.52,1.52,0,0,0,.864.083c.258-.053.516-.085.775-.157-.259-.073-.517-.1-.775-.156a1.425,1.425,0,0,1-.639-.215,1.213,1.213,0,0,1-.554-1.042,1.548,1.548,0,0,0-1.88-1.507c-.258.052-.517.084-.775.156C268.544,352.218,268.8,352.249,269.061,352.3ZM299.6,399.165a1.524,1.524,0,0,1,.652.2,1.2,1.2,0,0,1,.589,1.01,1.593,1.593,0,0,0,.968,1.474,1.514,1.514,0,0,0,.864.084c.259-.053.517-.085.775-.157-.258-.073-.516-.1-.775-.157a1.425,1.425,0,0,1-.638-.215,1.21,1.21,0,0,1-.554-1.041,1.549,1.549,0,0,0-1.88-1.508c-.259.052-.517.084-.776.156C299.086,399.081,299.344,399.112,299.6,399.165Zm-15.038-25.181a1.513,1.513,0,0,1,.652.2,1.194,1.194,0,0,1,.588,1.009,1.6,1.6,0,0,0,.969,1.475,1.513,1.513,0,0,0,.864.083c.259-.053.517-.084.775-.156-.258-.073-.516-.1-.775-.157a1.4,1.4,0,0,1-.638-.215,1.21,1.21,0,0,1-.554-1.041,1.549,1.549,0,0,0-1.88-1.507c-.259.053-.517.083-.776.156C284.048,373.9,284.306,373.931,284.565,373.984ZM250.131,399.8a1.424,1.424,0,0,1-.638-.219,1.183,1.183,0,0,1-.55-1.042,1.572,1.572,0,0,0-.921-1.4c-.024.21-.049.4-.065.6a1.119,1.119,0,0,1,.339.816,1.6,1.6,0,0,0,.97,1.472,1.477,1.477,0,0,0,.865.088c.259-.057.518-.088.776-.162C250.649,399.878,250.39,399.846,250.131,399.8Zm6.614-21.237a1.5,1.5,0,0,1,.652.2,1.194,1.194,0,0,1,.589,1.009,1.6,1.6,0,0,0,.969,1.475,1.514,1.514,0,0,0,.864.083c.258-.053.517-.084.775-.157-.258-.073-.517-.1-.775-.157a1.425,1.425,0,0,1-.639-.215,1.212,1.212,0,0,1-.553-1.042,1.549,1.549,0,0,0-1.881-1.507c-.258.052-.516.084-.775.156C256.229,378.476,256.487,378.507,256.745,378.56Zm40.625-25.641a1.521,1.521,0,0,1,.652.2,1.2,1.2,0,0,1,.589,1.01,1.6,1.6,0,0,0,.968,1.475,1.521,1.521,0,0,0,.864.083c.259-.053.517-.085.776-.157-.259-.073-.517-.1-.776-.157a1.4,1.4,0,0,1-.638-.215,1.212,1.212,0,0,1-.554-1.041,1.549,1.549,0,0,0-1.88-1.508c-.259.052-.517.084-.775.157C296.854,352.835,297.112,352.866,297.371,352.919ZM332.947,387.4a1.51,1.51,0,0,1,.652.2,1.2,1.2,0,0,1,.589,1.01,1.594,1.594,0,0,0,.969,1.474,1.506,1.506,0,0,0,.864.083c.258-.052.517-.084.775-.156-.258-.073-.517-.1-.775-.157a1.414,1.414,0,0,1-.639-.215,1.213,1.213,0,0,1-.554-1.041,1.548,1.548,0,0,0-1.88-1.508c-.258.052-.517.084-.775.156C332.43,387.313,332.689,387.343,332.947,387.4ZM318.824,366.35a1.508,1.508,0,0,1,.652.2,1.194,1.194,0,0,1,.589,1.01,1.6,1.6,0,0,0,.969,1.474,1.513,1.513,0,0,0,.864.083c.258-.052.517-.084.775-.157-.258-.073-.517-.1-.775-.157a1.428,1.428,0,0,1-.639-.215,1.214,1.214,0,0,1-.554-1.041,1.548,1.548,0,0,0-1.88-1.508c-.258.053-.516.084-.775.156C318.308,366.266,318.566,366.3,318.824,366.35ZM276.9,322.464a1.512,1.512,0,0,1-.6.322,1.194,1.194,0,0,1-1.13-.3,1.6,1.6,0,0,0-1.728-.358,1.517,1.517,0,0,0-.67.552c-.145.22-.306.425-.437.659.234-.131.439-.292.659-.437a1.423,1.423,0,0,1,.6-.3,1.212,1.212,0,0,1,1.128.345,1.548,1.548,0,0,0,2.4-.264c.145-.22.306-.425.438-.658C277.324,322.157,277.12,322.318,276.9,322.464Zm41.8,30.079a1.514,1.514,0,0,1-.6.323,1.2,1.2,0,0,1-1.13-.3,1.6,1.6,0,0,0-1.728-.358,1.512,1.512,0,0,0-.67.553c-.145.22-.305.425-.437.659.234-.131.439-.292.659-.436a1.4,1.4,0,0,1,.6-.3,1.214,1.214,0,0,1,1.128.344,1.549,1.549,0,0,0,2.4-.263c.146-.22.306-.425.438-.658C319.129,352.237,318.924,352.4,318.7,352.543Zm-26.087-56a1.525,1.525,0,0,1-.6.322,1.2,1.2,0,0,1-1.13-.3,1.6,1.6,0,0,0-1.728-.359,1.513,1.513,0,0,0-.67.553c-.145.22-.306.425-.437.659.233-.131.439-.291.658-.436a1.411,1.411,0,0,1,.6-.3,1.213,1.213,0,0,1,1.128.344,1.549,1.549,0,0,0,2.4-.263c.145-.22.306-.425.437-.659C293.04,296.234,292.836,296.394,292.616,296.54Zm-.513,16.587a1.509,1.509,0,0,1-.2.652,1.194,1.194,0,0,1-1.009.589,1.6,1.6,0,0,0-1.475.969,1.513,1.513,0,0,0-.083.864c.053.258.084.517.157.775.073-.258.1-.517.157-.775a1.4,1.4,0,0,1,.215-.639,1.214,1.214,0,0,1,1.041-.554,1.548,1.548,0,0,0,1.507-1.88c-.052-.258-.084-.516-.156-.775C292.187,312.611,292.155,312.869,292.1,313.127Zm-6.157,45.451a1.508,1.508,0,0,1-.2.652,1.194,1.194,0,0,1-1.009.589,1.6,1.6,0,0,0-1.475.968,1.514,1.514,0,0,0-.083.864c.053.259.084.517.157.776.073-.259.1-.517.157-.776a1.424,1.424,0,0,1,.215-.638,1.213,1.213,0,0,1,1.042-.554,1.548,1.548,0,0,0,1.507-1.88c-.052-.258-.084-.517-.156-.775C286.029,358.061,286,358.319,285.946,358.577ZM318.2,318.983a.677.677,0,0,1-.129.008,1.594,1.594,0,0,0-1.48.97,1.524,1.524,0,0,0-.08.865c.048.259.08.518.153.776.073-.258.1-.517.162-.776a1.4,1.4,0,0,1,.21-.638,1.229,1.229,0,0,1,1.043-.558,1.259,1.259,0,0,0,.421-.073C318.4,319.363,318.3,319.176,318.2,318.983Zm-.223,73.413a1.52,1.52,0,0,1-.2.652,1.2,1.2,0,0,1-1.01.589,1.6,1.6,0,0,0-1.475.969,1.51,1.51,0,0,0-.082.863c.052.259.084.517.157.776.073-.259.1-.517.156-.776a1.415,1.415,0,0,1,.215-.638,1.212,1.212,0,0,1,1.041-.554,1.55,1.55,0,0,0,1.508-1.88c-.053-.258-.084-.517-.157-.775C318.06,391.879,318.028,392.138,317.976,392.4Zm13.875-41.2a.261.261,0,0,1-.032.065,1.18,1.18,0,0,1-1.011.59,1.6,1.6,0,0,0-1.471.97,1.479,1.479,0,0,0-.089.865c.057.259.089.518.162.777.073-.259.1-.518.154-.777a1.433,1.433,0,0,1,.218-.638,1.209,1.209,0,0,1,1.043-.558,1.6,1.6,0,0,0,1.244-.638v-.008C332,351.631,331.924,351.412,331.851,351.193ZM260.89,360.2a1.511,1.511,0,0,1-.2.652,1.2,1.2,0,0,1-1.009.589,1.594,1.594,0,0,0-1.475.968,1.521,1.521,0,0,0-.083.864c.053.259.085.517.157.775.073-.258.1-.516.156-.775a1.4,1.4,0,0,1,.215-.638,1.21,1.21,0,0,1,1.041-.554,1.549,1.549,0,0,0,1.508-1.88c-.053-.259-.084-.517-.157-.776C260.974,359.687,260.943,359.945,260.89,360.2Zm1.7-40.729c-.137.453-.275.9-.412,1.35a1.491,1.491,0,0,0,.348-.541A1.651,1.651,0,0,0,262.595,319.475Zm14.555-26.565a1.51,1.51,0,0,1-.2.652,1.2,1.2,0,0,1-1.009.589,1.6,1.6,0,0,0-1.475.968,1.517,1.517,0,0,0-.083.865c.053.258.084.516.156.775.073-.259.1-.517.157-.775a1.414,1.414,0,0,1,.214-.639,1.213,1.213,0,0,1,1.041-.554,1.548,1.548,0,0,0,1.507-1.88c-.053-.259-.084-.517-.156-.775C277.233,292.394,277.2,292.652,277.149,292.911ZM273.156,333.9a1.51,1.51,0,0,1-.2.652,1.194,1.194,0,0,1-1.009.589,1.6,1.6,0,0,0-1.475.968,1.517,1.517,0,0,0-.083.865c.052.258.084.516.157.775.073-.259.1-.517.157-.775a1.424,1.424,0,0,1,.215-.639,1.214,1.214,0,0,1,1.042-.554,1.548,1.548,0,0,0,1.507-1.88c-.052-.258-.084-.517-.156-.775C273.239,333.38,273.208,333.639,273.156,333.9Zm35.861,5.509a1.508,1.508,0,0,1-.2.652,1.193,1.193,0,0,1-1.009.589,1.6,1.6,0,0,0-1.475.969,1.513,1.513,0,0,0-.083.864c.053.258.084.517.157.775.073-.258.1-.517.157-.775a1.4,1.4,0,0,1,.215-.639,1.211,1.211,0,0,1,1.041-.553,1.549,1.549,0,0,0,1.507-1.881c-.052-.258-.084-.517-.156-.775C309.1,338.89,309.069,339.148,309.017,339.406Zm-33.144,46.025a1.509,1.509,0,0,1-.2.652,1.2,1.2,0,0,1-1.009.588,1.6,1.6,0,0,0-1.475.968,1.514,1.514,0,0,0-.083.864c.053.259.084.517.156.776.073-.259.1-.517.157-.776a1.426,1.426,0,0,1,.215-.638,1.212,1.212,0,0,1,1.041-.554,1.548,1.548,0,0,0,1.507-1.88c-.052-.259-.084-.517-.156-.776C275.957,384.915,275.925,385.173,275.873,385.432Zm27.813-60.248a1.512,1.512,0,0,1,.6-.322,1.194,1.194,0,0,1,1.13.3,1.594,1.594,0,0,0,1.728.358,1.516,1.516,0,0,0,.67-.552c.145-.22.306-.426.437-.659-.234.131-.439.292-.659.437a1.418,1.418,0,0,1-.6.3,1.211,1.211,0,0,1-1.128-.344,1.548,1.548,0,0,0-2.4.264c-.145.219-.306.424-.437.658C303.261,325.49,303.466,325.329,303.685,325.184Zm-20.92,18.948a1.512,1.512,0,0,1,.6-.322,1.2,1.2,0,0,1,1.131.3,1.594,1.594,0,0,0,1.728.359,1.52,1.52,0,0,0,.669-.552c.145-.22.306-.425.437-.659-.233.131-.438.292-.658.437a1.425,1.425,0,0,1-.6.3,1.212,1.212,0,0,1-1.128-.345,1.548,1.548,0,0,0-2.4.264c-.145.22-.306.425-.437.658C282.341,344.438,282.546,344.277,282.765,344.132Zm-14.172,27.915a1.5,1.5,0,0,1,.6-.322,1.194,1.194,0,0,1,1.13.3,1.6,1.6,0,0,0,1.728.359,1.512,1.512,0,0,0,.67-.553c.145-.22.306-.425.437-.659-.234.131-.439.292-.659.437a1.409,1.409,0,0,1-.6.3,1.211,1.211,0,0,1-1.128-.344,1.548,1.548,0,0,0-2.4.264c-.145.22-.306.424-.438.658C268.169,372.353,268.373,372.192,268.594,372.047Zm6.126,29.006a1.513,1.513,0,0,1,.6-.323,1.2,1.2,0,0,1,1.13.3,1.6,1.6,0,0,0,1.728.358,1.51,1.51,0,0,0,.669-.553c.145-.22.306-.425.437-.659-.233.132-.438.293-.658.437a1.4,1.4,0,0,1-.6.3,1.211,1.211,0,0,1-1.127-.345,1.55,1.55,0,0,0-2.4.264c-.145.22-.306.425-.437.658C274.3,401.358,274.5,401.2,274.719,401.053Zm27.424-31.876a1.524,1.524,0,0,1,.6-.322,1.194,1.194,0,0,1,1.13.3,1.6,1.6,0,0,0,1.728.358,1.522,1.522,0,0,0,.67-.552c.144-.22.305-.425.437-.659-.234.132-.439.292-.659.437a1.422,1.422,0,0,1-.6.3,1.211,1.211,0,0,1-1.128-.345,1.55,1.55,0,0,0-2.4.264c-.146.22-.306.425-.438.658C301.719,369.483,301.923,369.322,302.144,369.177Zm18.875,11.553a1.529,1.529,0,0,1,.6-.322,1.2,1.2,0,0,1,1.131.3,1.594,1.594,0,0,0,1.727.358,1.506,1.506,0,0,0,.67-.552c.145-.22.306-.425.437-.659-.233.132-.438.292-.658.437a1.406,1.406,0,0,1-.6.3,1.214,1.214,0,0,1-1.128-.344,1.549,1.549,0,0,0-2.4.263c-.145.22-.306.425-.437.658C320.595,381.036,320.8,380.876,321.019,380.73Zm-31.751,8.77a1.5,1.5,0,0,1,.6-.322,1.194,1.194,0,0,1,1.13.3,1.6,1.6,0,0,0,1.728.359,1.513,1.513,0,0,0,.67-.553c.145-.22.306-.425.437-.658-.234.131-.439.292-.658.436a1.406,1.406,0,0,1-.6.3,1.213,1.213,0,0,1-1.128-.344,1.548,1.548,0,0,0-2.4.264c-.145.219-.306.424-.438.658C288.844,389.806,289.048,389.645,289.268,389.5Zm40.951,11.553a1.515,1.515,0,0,1,.6-.323,1.2,1.2,0,0,1,1.13.3,1.6,1.6,0,0,0,1.728.358,1.513,1.513,0,0,0,.67-.553c.145-.22.305-.425.437-.659-.234.132-.439.293-.659.437a1.4,1.4,0,0,1-.6.3,1.213,1.213,0,0,1-1.128-.344,1.549,1.549,0,0,0-2.4.263c-.146.22-.306.425-.438.658C329.794,401.359,330,401.2,330.219,401.053Zm7.306-31.4a1.183,1.183,0,0,1-.509-.307,1.551,1.551,0,0,0-2.393.267c-.145.219-.307.421-.436.655.234-.129.436-.291.655-.436a1.606,1.606,0,0,1,.6-.324,1.209,1.209,0,0,1,1.132.3,1.6,1.6,0,0,0,1.123.477ZM260.049,393.5a1.516,1.516,0,0,1,.6-.323,1.2,1.2,0,0,1,1.13.3,1.6,1.6,0,0,0,1.728.359,1.513,1.513,0,0,0,.67-.553c.145-.22.306-.425.437-.658-.234.131-.439.292-.659.436a1.4,1.4,0,0,1-.6.3,1.214,1.214,0,0,1-1.128-.344,1.549,1.549,0,0,0-2.4.263c-.145.22-.306.425-.438.658C259.625,393.8,259.83,393.64,260.049,393.5Zm-2.338-48.705a1.5,1.5,0,0,1,.6-.322,1.194,1.194,0,0,1,1.13.3,1.594,1.594,0,0,0,1.728.359,1.517,1.517,0,0,0,.67-.552c.145-.22.306-.426.437-.659-.234.131-.439.292-.659.437a1.423,1.423,0,0,1-.6.3,1.214,1.214,0,0,1-1.128-.345,1.548,1.548,0,0,0-2.4.264c-.145.219-.306.424-.438.658C257.287,345.1,257.491,344.935,257.711,344.79Z" transform="translate(-247.415 -289.312)" fill="#dbdbdb"/>
                <path id="Path_113011" data-name="Path 113011" d="M263.244,321.532q-1.339,4.839-2.588,9.693c.108-1.412.262-2.822.444-4.226.01-.083-.116-.118-.134-.032a30.4,30.4,0,0,0-.58,5.294c-1,3.9-1.94,7.82-2.807,11.758-1.662,7.548-3.14,15.151-4.365,22.778-.69,4.3-1.225,8.631-1.961,12.923-.013.08.114.112.128.031.674-3.807,1.571-7.594,2.4-11.373q1.237-5.632,2.4-11.279c1.568-7.568,3.228-15.118,4.787-22.687.878-4.265,1.7-8.541,2.577-12.8A.157.157,0,0,0,263.244,321.532Z" transform="translate(-247.829 -292.988)" fill="#263238"/>
              </g>
              <g id="Group_259710" data-name="Group 259710" transform="translate(61.085 68.876)">
                <g id="Group_259707" data-name="Group 259707" transform="translate(0 0.267)">
                  <path id="Path_113012" data-name="Path 113012" d="M309.774,300.546c15.665,16.779,52.931,79.745,40.849,91.355-12.168,11.693-79.134-4.018-97.97-12.991-5.6-2.669,15.688-37.6,22.273-38.416,5.483-.68,33.512,12.142,34.322,10.529.916-1.822-5.45-13.518-12.193-37.868C289.281,285.077,302.854,293.134,309.774,300.546Z" transform="translate(-195.363 -293.486)" fill="#ffbe9d"/>
                  <g id="Group_259706" data-name="Group 259706" transform="translate(0.398 25.058)">
                    <path id="Path_113013" data-name="Path 113013" d="M240.9,332.817c-13.616-1.9-17.4-.293-28.046-8-6.984-5.054-13.208-2.765-9.224,5.267,6.517,13.138,23.571,19.274,30.1,19.7Z" transform="translate(-189.567 -322.141)" fill="#ffbe9d"/>
                    <g id="Group_259701" data-name="Group 259701" transform="translate(0 10.23)">
                      <path id="Path_113014" data-name="Path 113014" d="M275.228,347.394s-15.3-8.5-29.611-11.953c-9.9-2.391-32.007-5.191-53.163,16.625-5.019,5.174-8.5,16.107,2.767,10.632,8-3.89,11.9-8.774,16.966-10.188,0,0-2.776,14.431,2.6,19.255a133,133,0,0,0,14.958,11.606,28.031,28.031,0,0,0,2.422-2.6s5.452,4.032,15.713,3.055Z" transform="translate(-187.728 -333.839)" fill="#ffbe9d"/>
                    </g>
                    <g id="Group_259705" data-name="Group 259705" transform="translate(11.904 11.058)">
                      <path id="Path_113015" data-name="Path 113015" d="M237.515,334.786c-4.732,2.468-14.672,7.865-21.268,15.108-7.327,8.046-19.272,25.519-13.277,30.866,4.4,3.921,9.543-2.35,9.543-2.35s-3.415,8.263,1.331,10.937c4.324,2.435,8.015-2.654,8.015-2.654s-1.21,5.368,3.407,6.913c5.555,1.857,7.179-9.7,14.43-12.677C241.324,380.26,237.515,334.786,237.515,334.786Z" transform="translate(-201.341 -334.786)" fill="#ffbe9d"/>
                      <g id="Group_259704" data-name="Group 259704" transform="translate(11.09 21.422)">
                        <g id="Group_259702" data-name="Group 259702">
                          <path id="Path_113016" data-name="Path 113016" d="M227.631,359.293c-4.07,3.049-11.534,12.348-13.6,21.979-.046.218.093.371.178.18a106.82,106.82,0,0,1,13.5-22.091C227.745,359.315,227.677,359.258,227.631,359.293Z" transform="translate(-214.022 -359.283)" fill="#263238"/>
                        </g>
                        <g id="Group_259703" data-name="Group 259703" transform="translate(9.245 7.629)">
                          <path id="Path_113017" data-name="Path 113017" d="M236.865,368.02c-3.241,2.992-10.507,12.919-12.264,22.751-.039.22.111.363.188.17a114.434,114.434,0,0,1,12.156-22.856C236.98,368.036,236.907,367.982,236.865,368.02Z" transform="translate(-224.595 -368.007)" fill="#263238"/>
                        </g>
                      </g>
                    </g>
                  </g>
                  <path id="Path_113018" data-name="Path 113018" d="M212.127,355.088c-4.437,1.306-7.324,3.484-11.069,6.085a60.833,60.833,0,0,1-5.716,3.62c-1.808.978-4.474,2.455-6.4.924-1.071-.853-1.056-2.4-.818-3.626a9.789,9.789,0,0,1,1.608-3.833c.041-.058-.059-.132-.1-.074a13.179,13.179,0,0,0-1.836,3.28,5.911,5.911,0,0,0-.4,3.464c.652,2.447,3.537,2.769,5.581,2.1a19.313,19.313,0,0,0,3.493-1.69c1.076-.617,2.121-1.285,3.15-1.98,2.109-1.425,4.134-2.971,6.227-4.42a57.894,57.894,0,0,1,6.348-3.7C212.278,355.192,212.216,355.062,212.127,355.088Z" transform="translate(-187.273 -301.218)" fill="#263238"/>
                  <path id="Path_113019" data-name="Path 113019" d="M204.526,370.7c1.148-2.53,7.367-13.069,9.384-15.507a.063.063,0,0,0-.092-.087c-3.459,3.279-9.018,11.987-10.313,14.778-1.28,2.757-2.755,6.281-2.755,9.355,0,4.637,3.075,5.515,4.212,5.742a6.008,6.008,0,0,0,3.946-.645,12.1,12.1,0,0,0,3.577-3.361c.048-.063-.037-.15-.092-.087-1.606,1.826-4.275,3.629-6.8,3.3a4.217,4.217,0,0,1-2.867-1.547,5.462,5.462,0,0,1-.741-3.734A25.353,25.353,0,0,1,204.526,370.7Z" transform="translate(-188.965 -301.219)" fill="#263238"/>
                  <path id="Path_113020" data-name="Path 113020" d="M223.074,392.858c-.645.553-1.976,2.475-4.088,2.886a4.776,4.776,0,0,1-4.348-.971,6.025,6.025,0,0,1-1.669-4.217,38.708,38.708,0,0,1,.971-5.835c.024-.09-.089-.131-.117-.045a21.5,21.5,0,0,0-1.392,6.277,6.316,6.316,0,0,0,1.775,4.622,4.74,4.74,0,0,0,4.853,1.008c.825-.31,3.435-1.982,4.193-3.632C223.268,392.914,223.1,392.833,223.074,392.858Z" transform="translate(-190.431 -304.927)" fill="#263238"/>
                  <path id="Path_113021" data-name="Path 113021" d="M242.156,386.6a11.247,11.247,0,0,0-1.966,1.657c-.651.626-1.279,1.279-1.892,1.942a26.278,26.278,0,0,0-3.208,4.393c-.936,1.573-1.8,3.327-3.327,4.42a4.341,4.341,0,0,1-5.075.126,4.247,4.247,0,0,1-1.586-2.352,8.291,8.291,0,0,1-.3-3.163.063.063,0,1,0-.124-.013,14.591,14.591,0,0,0-.227,2.873,5.051,5.051,0,0,0,.909,2.442,4.837,4.837,0,0,0,4.734,1.769,7.129,7.129,0,0,0,4.41-3.387c1.171-1.754,2.135-3.624,3.386-5.329.658-.9,1.3-1.8,2.026-2.65.75-.882,1.651-1.672,2.343-2.6C242.318,386.657,242.245,386.546,242.156,386.6Z" transform="translate(-191.937 -305.172)" fill="#263238"/>
                  <path id="Path_113022" data-name="Path 113022" d="M249.813,390.9a39.943,39.943,0,0,1-7.468-1.549c-.077-.025-.186.193-.115.233a17.653,17.653,0,0,0,3.682,1.216,13.2,13.2,0,0,0,3.881.237C249.865,391.03,249.9,390.908,249.813,390.9Z" transform="translate(-194.169 -305.52)" fill="#263238"/>
                  <path id="Path_113023" data-name="Path 113023" d="M341.738,371.232a98.081,98.081,0,0,0-12.327-7.044,95.38,95.38,0,0,0-13.083-5.068c-2.548-.808-5.127-1.491-7.706-2.192a.063.063,0,0,0-.031.122,122.671,122.671,0,0,1,13.212,4.962q6.442,2.778,12.771,5.786c2.388,1.137,4.723,2.386,7.071,3.6A.1.1,0,0,0,341.738,371.232Z" transform="translate(-202.496 -301.449)" fill="#263238"/>
                </g>
                <g id="Group_259709" data-name="Group 259709" transform="translate(98.353)">
                  <path id="Path_113024" data-name="Path 113024" d="M347.888,340.081l-38.028-1.258s-7.078-18.771-9.773-35.469,10.983-11.6,25.262,6.276S347.888,340.081,347.888,340.081Z" transform="translate(-299.745 -293.181)" fill="#60a6df"/>
                  <path id="Path_113025" data-name="Path 113025" d="M315.5,325.422a1.456,1.456,0,0,1-.606.3,1.2,1.2,0,0,1-1.124-.347,1.577,1.577,0,0,0-1.745-.3,1.56,1.56,0,0,0-.655.566c-.146.218-.307.42-.436.654.234-.129.436-.29.663-.436a1.492,1.492,0,0,1,.6-.323,1.216,1.216,0,0,1,1.132.3,1.593,1.593,0,0,0,1.722.365,1.547,1.547,0,0,0,.671-.558c.145-.219.307-.421.436-.655C315.919,325.115,315.717,325.276,315.5,325.422Zm12-6.991c-.056-.259-.088-.518-.162-.776-.073.259-.1.518-.153.776a1.525,1.525,0,0,1-.194.646,1.2,1.2,0,0,1-1.01.59,1.594,1.594,0,0,0-1.48.97,1.525,1.525,0,0,0-.08.865c.048.259.08.518.153.776.073-.258.1-.517.162-.776a1.393,1.393,0,0,1,.21-.638,1.229,1.229,0,0,1,1.043-.558,1.56,1.56,0,0,0,1.511-1.875Zm-13.361-20.911a1.469,1.469,0,0,0,.024.275c.057.251.081.51.153.768.073-.258.106-.517.162-.768v-.016C314.359,297.681,314.246,297.6,314.132,297.519Zm27.11,31.629a1.079,1.079,0,0,1-.751-.331,1.6,1.6,0,0,0-1.73-.355,1.522,1.522,0,0,0-.672.549c-.145.226-.307.428-.436.663.234-.129.436-.291.663-.436a1.268,1.268,0,0,1,.6-.3,1.213,1.213,0,0,1,1.132.339,1.594,1.594,0,0,0,1.56.38Q341.437,329.415,341.243,329.148Zm-26.318-18.954a1.524,1.524,0,0,1-.647-.211,1.221,1.221,0,0,1-.549-1.042,1.585,1.585,0,0,0-1.019-1.455,1.612,1.612,0,0,0-.865-.057c-.259.057-.517.089-.776.162.259.065.517.1.776.154a1.552,1.552,0,0,1,.655.194,1.215,1.215,0,0,1,.59,1.01,1.6,1.6,0,0,0,.97,1.48,1.532,1.532,0,0,0,.865.08c.25-.057.509-.08.768-.153C315.434,310.282,315.175,310.25,314.925,310.194Zm17.492,26.6a1.4,1.4,0,0,1-.639-.219,1.208,1.208,0,0,1-.557-1.043,1.545,1.545,0,0,0-1.876-1.5c-.259.057-.517.081-.776.154.259.073.517.1.776.162a1.407,1.407,0,0,1,.647.194,1.175,1.175,0,0,1,.589,1.01,1.59,1.59,0,0,0,.971,1.471,1.472,1.472,0,0,0,.865.089c.258-.057.517-.089.776-.162C332.934,336.875,332.675,336.843,332.417,336.8Z" transform="translate(-301.149 -293.725)" fill="#dbdbdb"/>
                  <g id="Group_259708" data-name="Group 259708" transform="translate(3.272 24.845)">
                    <path id="Path_113026" data-name="Path 113026" d="M311.894,342.26c-.2,0-1.543-.234-1.549-.234-.095-.5-2.264-8.345-2.834-10.052-1.162-3.478-2.528-6.9-3.846-10.32a.091.091,0,0,0-.175.053c.859,2.943,1.663,5.906,2.545,8.844-.266-.416-.528-.835-.779-1.261-.515-.872-.965-1.777-1.445-2.666-.043-.08-.169-.02-.143.064a14.991,14.991,0,0,0,1.675,3.5,12.63,12.63,0,0,0,.989,1.343c.075.244.146.49.222.734.54,1.717,3.325,10.21,3.467,10.219.034,0,1.409.032,1.834.036C311.961,342.519,312,342.261,311.894,342.26Z" transform="translate(-303.486 -321.593)" fill="#263238"/>
                    <path id="Path_113027" data-name="Path 113027" d="M343.2,338.311c-8.2-.613-16.457-.653-24.692-.53q-3.5.053-6.986.269c-.065,0-.078.1-.008.1,4.1.219,8.21.271,12.321.347s8.246.118,12.369.079c2.328-.023,4.654-.043,6.982-.113C343.292,338.463,343.308,338.318,343.2,338.311Z" transform="translate(-304.488 -323.618)" fill="#263238"/>
                  </g>
                </g>
              </g>
              <path id="Path_113028" data-name="Path 113028" d="M276.966,292.1c-2.525,2.112-5.059,10.014-3.668,15.234s4.157,8.579,8.908,8.157,13.868-4.05,19.818-14.7S289.4,281.7,276.966,292.1Z" transform="translate(-136.936 -223.575)" fill="#dbdbdb"/>
              <g id="Group_259724" data-name="Group 259724" transform="translate(125.039)">
                <g id="Group_259712" data-name="Group 259712" transform="translate(13.447 48.88)">
                  <g id="Group_259711" data-name="Group 259711" transform="translate(0 0.002)">
                    <path id="Path_113029" data-name="Path 113029" d="M280.754,307.5c5.614,1.65,15.842-6.513,20.076-13.348.288-.47-.677-19.89-.469-23.759.047-.793-24.578,4.587-24.578,4.587s1.948,8.237,1.543,14.978C277.288,290.527,275.328,305.9,280.754,307.5Z" transform="translate(-275.784 -270.318)" fill="#ffbe9d"/>
                  </g>
                  <path id="Path_113030" data-name="Path 113030" d="M300.8,289.213c-12.937,1.914-19.956-1.958-23.649-5.672a71.9,71.9,0,0,0-1.369-8.561s24.618-5.377,24.58-4.586C300.223,273.058,300.629,283.066,300.8,289.213Z" transform="translate(-275.784 -270.315)" fill="#263238"/>
                </g>
                <g id="Group_259723" data-name="Group 259723">
                  <g id="Group_259713" data-name="Group 259713" transform="translate(5.531 6.132)">
                    <path id="Path_113031" data-name="Path 113031" d="M268.63,233.091c-3.592,8.259-1.906,33.5,3.549,39.712,7.909,9,22.269,11.423,30.275,1.593,7.76-9.528,4.981-42.387-1.244-48.176C292.04,217.7,273.937,220.891,268.63,233.091Z" transform="translate(-266.732 -221.43)" fill="#ffbe9d"/>
                  </g>
                  <g id="Group_259719" data-name="Group 259719" transform="translate(24.822 27.37)">
                    <g id="Group_259714" data-name="Group 259714" transform="translate(1.792 6.524)">
                      <path id="Path_113032" data-name="Path 113032" d="M294.788,255.1c-.017-.063-.128.089-.121.159.159,1.7.055,3.668-1.449,4.328-.046.02-.036.106.02.094C295.1,259.3,295.212,256.682,294.788,255.1Z" transform="translate(-291.136 -253.417)" fill="#263238"/>
                      <path id="Path_113033" data-name="Path 113033" d="M292.865,253.178c-2.748-.038-2.623,5.461-.077,5.5C295.295,258.71,295.169,253.21,292.865,253.178Z" transform="translate(-290.841 -253.178)" fill="#263238"/>
                    </g>
                    <g id="Group_259715" data-name="Group 259715" transform="translate(14.768 6.424)">
                      <path id="Path_113034" data-name="Path 113034" d="M305.771,255.147c.011-.065.136.078.135.148-.015,1.7.255,3.659,1.809,4.19.048.017.045.1-.012.1C305.816,259.358,305.483,256.759,305.771,255.147Z" transform="translate(-305.68 -253.323)" fill="#263238"/>
                      <path id="Path_113035" data-name="Path 113035" d="M307.256,253.074c2.735-.27,3.076,5.22.541,5.471C305.3,258.791,304.964,253.3,307.256,253.074Z" transform="translate(-305.685 -253.064)" fill="#263238"/>
                    </g>
                    <path id="Path_113036" data-name="Path 113036" d="M290.381,249.794a21.641,21.641,0,0,0,2.113-.8,3.652,3.652,0,0,0,2-1.226,1.164,1.164,0,0,0-.22-1.4,2.885,2.885,0,0,0-2.913-.231,4.241,4.241,0,0,0-2.4,1.888A1.241,1.241,0,0,0,290.381,249.794Z" transform="translate(-288.792 -245.735)" fill="#263238"/>
                    <path id="Path_113037" data-name="Path 113037" d="M309.181,249.334a21.234,21.234,0,0,1-2.2-.518,3.643,3.643,0,0,1-2.142-.955,1.162,1.162,0,0,1,.035-1.42,2.886,2.886,0,0,1,2.859-.608,4.239,4.239,0,0,1,2.624,1.56A1.241,1.241,0,0,1,309.181,249.334Z" transform="translate(-290.778 -245.717)" fill="#263238"/>
                    <path id="Path_113038" data-name="Path 113038" d="M293.086,273.206c.417.389.837.93,1.456.967a4.481,4.481,0,0,0,1.822-.47.06.06,0,0,1,.076.086,2.293,2.293,0,0,1-2.142.974,1.814,1.814,0,0,1-1.374-1.476C292.9,273.189,293.026,273.149,293.086,273.206Z" transform="translate(-289.31 -249.165)" fill="#263238"/>
                    <g id="Group_259717" data-name="Group 259717" transform="translate(5.412 0.246)">
                      <g id="Group_259716" data-name="Group 259716">
                        <path id="Path_113039" data-name="Path 113039" d="M295.019,264.653a5.8,5.8,0,0,0,3.931,2.492,7.282,7.282,0,0,0,2.088.048,2.053,2.053,0,0,0,.4-.055c.124-.017.236-.035.372-.066a.423.423,0,0,0,.333-.389v-.012a.773.773,0,0,0-.02-.174v-.013l-.006-.15c.006-1.312-.167-3.3-.167-3.3.484.229,2.953,1.272,2.9.588-.468-5.665-.988-11.965-2.651-17.5a.158.158,0,0,0-.31.051c.234,5.463,1.427,10.847,1.75,16.33a10.188,10.188,0,0,0-2.756-.769c-.185.059.4,3.844.352,4.434a.224.224,0,0,1-.01.062c-2.2.332-3.874-.3-6.047-1.727C295.047,264.4,294.915,264.52,295.019,264.653Z" transform="translate(-294.981 -245.999)" fill="#263238"/>
                      </g>
                    </g>
                    <g id="Group_259718" data-name="Group 259718" transform="translate(4.791 18.855)">
                      <path id="Path_113040" data-name="Path 113040" d="M300.16,269.218a6.893,6.893,0,0,1-2.707,2.2,3.1,3.1,0,0,1-1.878.16c-1.369-.327-1.431-1.575-1.2-2.648a7.4,7.4,0,0,1,.572-1.649A8.919,8.919,0,0,0,300.16,269.218Z" transform="translate(-294.271 -267.279)" fill="#263238"/>
                      <path id="Path_113041" data-name="Path 113041" d="M297.454,271.653a3.105,3.105,0,0,1-1.878.16c-1.369-.327-1.431-1.575-1.2-2.648A3.2,3.2,0,0,1,297.454,271.653Z" transform="translate(-294.271 -267.516)" fill="#ff99ba"/>
                    </g>
                  </g>
                  <g id="Group_259720" data-name="Group 259720" transform="translate(0.041)">
                    <path id="Path_113042" data-name="Path 113042" d="M267.045,251.919c6.429.279,8.225-11.33,8.225-11.33s11.121-1.29,13.116-9.522c0,0,10.161,7.18,18.537,4.58s7.085-12,6.266-14.031-5.558,1.45-5.558,1.45-.275-5.295-1.658-5.9-3.063,2.515-3.063,2.515-10.443-4.058-20.085-4.237-14.863,9.3-14.863,9.3-5.2.851-7.038,4.378S262.948,251.741,267.045,251.919Z" transform="translate(-260.454 -214.547)" fill="#263238"/>
                    <path id="Path_113043" data-name="Path 113043" d="M290.292,231.478a13.71,13.71,0,0,1-1.237,4.884,9.1,9.1,0,0,1-3.216,3.64,13.265,13.265,0,0,1-4.656,1.634c-.829.122-1.676.164-2.523.234-.849.006-1.7-.017-2.567.014.843.157,1.7.261,2.559.394.863.011,1.737.041,2.608-.007a11.715,11.715,0,0,0,5.028-1.568,8.71,8.71,0,0,0,3.351-4.084A10.641,10.641,0,0,0,290.292,231.478Z" transform="translate(-262.417 -216.56)" fill="#263238"/>
                    <path id="Path_113044" data-name="Path 113044" d="M268.9,225.93a15.844,15.844,0,0,1,4.126-7.064,12.622,12.622,0,0,1,7.2-3.445,14.642,14.642,0,0,1,2.029-.2l2.052.058c1.365.106,2.719.409,4.077.638,1.325.39,2.683.7,3.994,1.158,1.3.48,2.6.986,3.928,1.447-1.245-.631-2.518-1.216-3.784-1.829-1.293-.542-2.651-.926-3.981-1.4a21.407,21.407,0,0,0-8.439-.693,12.91,12.91,0,0,0-7.529,3.819A14.2,14.2,0,0,0,268.9,225.93Z" transform="translate(-261.514 -214.418)" fill="#263238"/>
                  </g>
                  <g id="Group_259721" data-name="Group 259721" transform="translate(0.883 28.647)">
                    <path id="Path_113045" data-name="Path 113045" d="M289.762,262.115a7.294,7.294,0,1,1,7.963-8.322h0a7.3,7.3,0,0,1-7.963,8.321Zm1.4-13.541a6.319,6.319,0,1,0,5.6,5.362A6.278,6.278,0,0,0,291.158,248.574Z" transform="translate(-264.153 -247.226)" fill="#222"/>
                    <path id="Path_113046" data-name="Path 113046" d="M309.113,261.742c-2.776-.287-5-3.389-5.056-7.194a8.714,8.714,0,0,1,1.469-5.121,4.544,4.544,0,0,1,7.778-.11,8.71,8.71,0,0,1,1.613,5.076c.056,4.021-2.333,7.327-5.326,7.37A4.326,4.326,0,0,1,309.113,261.742Zm.654-13.573a3.258,3.258,0,0,0-.369-.017,3.89,3.89,0,0,0-3.075,1.835,7.749,7.749,0,0,0-1.292,4.545c.051,3.484,2.08,6.292,4.546,6.255s4.413-2.9,4.364-6.38a7.736,7.736,0,0,0-1.419-4.507A4.014,4.014,0,0,0,309.767,248.17Z" transform="translate(-266.769 -247.177)" fill="#222"/>
                    <path id="Path_113047" data-name="Path 113047" d="M299.45,255.363l-.637-.738c1.093-.944,3.633-2.23,5.44-.349l-.7.675C301.934,253.265,299.551,255.278,299.45,255.363Z" transform="translate(-266.111 -247.947)" fill="#222"/>
                    <path id="Path_113048" data-name="Path 113048" d="M262.289,257.63l-.872-.435c.2-.407,2.047-3.986,4.219-4.371,2.031-.353,15.116.686,15.672.731l-.079.972c-3.751-.3-13.856-1.02-15.424-.742C264.372,254.038,262.782,256.646,262.289,257.63Z" transform="translate(-261.417 -247.877)" fill="#222"/>
                  </g>
                  <g id="Group_259722" data-name="Group 259722" transform="translate(0 31.451)">
                    <path id="Path_113049" data-name="Path 113049" d="M270.811,257.481s-4.846-8.54-8.67-6.885-.707,13.666,3.412,15.657a4.359,4.359,0,0,0,6.036-1.785Z" transform="translate(-260.407 -250.383)" fill="#ffbe9d"/>
                    <path id="Path_113050" data-name="Path 113050" d="M263.5,254.538a.06.06,0,0,0-.033.113c2.878,1.494,4.192,4.418,5.024,7.4-.785-1.191-1.94-1.912-3.523-.993-.083.049-.02.178.066.168a2.681,2.681,0,0,1,2.851,1.209,12.932,12.932,0,0,1,1.183,2.509c.115.281.611.184.539-.135l-.018-.071C270.022,260.928,267.56,255.308,263.5,254.538Z" transform="translate(-260.787 -250.905)" fill="#263238"/>
                  </g>
                </g>
              </g>
            </g>
          </g>
        </g>
        <g id="Desk" transform="translate(54.133 372.117)">
          <path id="Path_113051" data-name="Path 113051" d="M55.824,418.694l69.778-.213,69.778-.077,139.555-.146,139.555.146,69.778.077,69.778.214-69.778.214-69.778.077-139.555.146-139.555-.147-69.778-.077Z" transform="translate(-55.824 -418.257)" fill="#263238"/>
        </g>
        <g id="Device_2" data-name="Device 2" transform="translate(450.767 310.353)">
          <g id="Group_259730" data-name="Group 259730">
            <g id="Group_259727" data-name="Group 259727" transform="translate(0 60.003)">
              <rect id="Rectangle_159020" data-name="Rectangle 159020" width="97.236" height="4.361" fill="#455a64"/>
              <rect id="Rectangle_159021" data-name="Rectangle 159021" width="48.94" height="4.361" fill="#284f63"/>
            </g>
            <g id="Group_259729" data-name="Group 259729" transform="translate(47.805)">
              <g id="Group_259728" data-name="Group 259728">
                <path id="Path_113052" data-name="Path 113052" d="M564.061,411.988h94.764l13.39-64.361H577.45Z" transform="translate(-564.061 -347.627)" fill="#284f63"/>
              </g>
              <path id="Path_113053" data-name="Path 113053" d="M617.495,385.164a5.581,5.581,0,0,0,5.652,6.315,7.187,7.187,0,0,0,6.98-6.315,5.581,5.581,0,0,0-5.652-6.316A7.188,7.188,0,0,0,617.495,385.164Z" transform="translate(-570.764 -351.546)" fill="#fff"/>
            </g>
          </g>
        </g>
        <g id="Device_1" data-name="Device 1" transform="translate(60.384 278.716)">
          <g id="Group_259747" data-name="Group 259747">
            <g id="Group_259741" data-name="Group 259741" transform="translate(82.815 87.765)">
              <g id="Group_259740" data-name="Group 259740" transform="translate(1.315 0)">
                <g id="Group_259731" data-name="Group 259731" transform="translate(55.721 1.854)">
                  <rect id="Rectangle_159022" data-name="Rectangle 159022" width="5.371" height="3.507" transform="translate(5.371 3.507) rotate(180)" fill="#455a64"/>
                </g>
                <g id="Group_259732" data-name="Group 259732" transform="translate(48.756 1.622)">
                  <rect id="Rectangle_159023" data-name="Rectangle 159023" width="5.371" height="3.507" transform="translate(5.371 3.507) rotate(180)" fill="#455a64"/>
                </g>
                <g id="Group_259733" data-name="Group 259733" transform="translate(41.791 1.39)">
                  <rect id="Rectangle_159024" data-name="Rectangle 159024" width="5.371" height="3.507" transform="translate(5.371 3.507) rotate(180)" fill="#455a64"/>
                </g>
                <g id="Group_259734" data-name="Group 259734" transform="translate(34.826 1.159)">
                  <rect id="Rectangle_159025" data-name="Rectangle 159025" width="5.371" height="3.507" transform="translate(5.371 3.507) rotate(180)" fill="#455a64"/>
                </g>
                <g id="Group_259735" data-name="Group 259735" transform="translate(27.861 0.927)">
                  <rect id="Rectangle_159026" data-name="Rectangle 159026" width="5.371" height="3.507" transform="translate(5.371 3.507) rotate(180)" fill="#455a64"/>
                </g>
                <g id="Group_259736" data-name="Group 259736" transform="translate(20.896 0.695)">
                  <rect id="Rectangle_159027" data-name="Rectangle 159027" width="5.371" height="3.507" transform="translate(5.371 3.507) rotate(180)" fill="#455a64"/>
                </g>
                <g id="Group_259737" data-name="Group 259737" transform="translate(13.93 0.463)">
                  <rect id="Rectangle_159028" data-name="Rectangle 159028" width="5.371" height="3.507" transform="translate(5.371 3.507) rotate(180)" fill="#455a64"/>
                </g>
                <g id="Group_259738" data-name="Group 259738" transform="translate(6.965 0.232)">
                  <rect id="Rectangle_159029" data-name="Rectangle 159029" width="5.371" height="3.507" transform="translate(5.371 3.507) rotate(180)" fill="#455a64"/>
                </g>
                <g id="Group_259739" data-name="Group 259739" transform="translate(0)">
                  <rect id="Rectangle_159030" data-name="Rectangle 159030" width="5.371" height="3.507" transform="translate(5.371 3.507) rotate(180)" fill="#455a64"/>
                </g>
              </g>
              <path id="Path_113054" data-name="Path 113054" d="M157.675,419.381H221.4v-4.267l-63.722-1.777Z" transform="translate(-157.675 -412.004)" fill="#37474f"/>
            </g>
            <g id="Group_259744" data-name="Group 259744">
              <g id="Group_259742" data-name="Group 259742">
                <path id="Path_113055" data-name="Path 113055" d="M84.151,389.765h105.2l-16.73-78.316H67.421Z" transform="translate(-63.53 -311.449)" fill="#5387a1"/>
                <path id="Path_113056" data-name="Path 113056" d="M79.7,389.765H184.9l-16.73-78.316H62.972Z" transform="translate(-62.972 -311.449)" fill="#284f63"/>
                <path id="Path_113057" data-name="Path 113057" d="M122.278,350.105a7.914,7.914,0,0,0,7.534,6.5,5.413,5.413,0,0,0,5.474-6.5,7.914,7.914,0,0,0-7.534-6.5A5.413,5.413,0,0,0,122.278,350.105Z" transform="translate(-70.406 -315.485)" fill="#2b627e"/>
              </g>
              <g id="Group_259743" data-name="Group 259743" transform="translate(27.842 54.88)">
                <path id="Path_113058" data-name="Path 113058" d="M116.125,423.58h51.738v-4.018l-51.738-1.673Z" transform="translate(-97.486 -379.69)" fill="#5387a1"/>
                <path id="Path_113059" data-name="Path 113059" d="M100.039,418.091h27.779l16.73-43.884H116.769Z" transform="translate(-95.467 -374.207)" fill="#5387a1"/>
                <path id="Path_113060" data-name="Path 113060" d="M94.811,418.091h27.779l16.729-43.884H111.54Z" transform="translate(-94.811 -374.207)" fill="#2b627e"/>
              </g>
            </g>
            <g id="Group_259746" data-name="Group 259746" transform="translate(147.754 81.044)">
              <path id="Path_113061" data-name="Path 113061" d="M232.686,422.919h53.341c4.553,0-2.034-12.962-18.647-17.935S227.446,418.057,232.686,422.919Z" transform="translate(-231.935 -404.126)" fill="#284f63"/>
              <g id="Group_259745" data-name="Group 259745" transform="translate(0.751 4.608)">
                <path id="Path_113062" data-name="Path 113062" d="M255.424,423.581a33.722,33.722,0,0,0-1.336-4.14,26.22,26.22,0,0,0-1.9-3.846,19.046,19.046,0,0,0-2.571-3.4l-.75-.769-.818-.7c-.516-.518-1.163-.849-1.733-1.327a12.345,12.345,0,0,1,3.775,2.306,14.493,14.493,0,0,1,2.845,3.442A17.262,17.262,0,0,1,255.424,423.581Z" transform="translate(-234.492 -409.396)" fill="#263238"/>
                <path id="Path_113063" data-name="Path 113063" d="M247.406,411.513c-1.457.791-2.882,1.613-4.3,2.442-1.4.846-2.8,1.7-4.116,2.658a25.877,25.877,0,0,0-3.716,3.12,9.372,9.372,0,0,0-2.483,4.114,7.786,7.786,0,0,1,1.97-4.565,19.192,19.192,0,0,1,3.721-3.381A31.978,31.978,0,0,1,247.406,411.513Z" transform="translate(-232.794 -409.662)" fill="#263238"/>
              </g>
            </g>
          </g>
        </g>
        <g id="Speech_Bubble" data-name="Speech Bubble" transform="translate(291.797 196.048)">
          <g id="Group_259751" data-name="Group 259751">
            <g id="Group_259749" data-name="Group 259749">
              <path id="Path_113067" data-name="Path 113067" d="M331.315,245.185a15.312,15.312,0,0,1-2.619-8.458c0-10.715,11.767-19.4,26.272-19.4s26.26,8.688,26.26,19.4-11.755,19.4-26.26,19.4a31.546,31.546,0,0,1-18.121-5.368l-9.049,2.3Z" transform="translate(-327.628 -216.966)" fill="#fff"/>
              <path id="Path_113068" data-name="Path 113068" d="M331.291,245.133a14.994,14.994,0,0,1-.634-16.229,20.629,20.629,0,0,1,5.782-6.3,27.543,27.543,0,0,1,7.633-3.9,35.441,35.441,0,0,1,8.413-1.7,36.189,36.189,0,0,1,8.578.429,30.512,30.512,0,0,1,8.211,2.555,25.469,25.469,0,0,1,7.088,4.9,18.081,18.081,0,0,1,4.576,7.325,14.815,14.815,0,0,1,.082,8.643,17.922,17.922,0,0,1-4.462,7.392,25.266,25.266,0,0,1-7.027,4.981,33.838,33.838,0,0,1-16.756,3.094,31.171,31.171,0,0,1-16.069-5.451l.163.031-9.074,2.2-.193.047.082-.178Zm0,0-3.43,7.916-.111-.132,9.024-2.4.087-.024.078.053a30.912,30.912,0,0,0,15.877,5.149,35.188,35.188,0,0,0,8.4-.571,30.26,30.26,0,0,0,7.982-2.589,24.5,24.5,0,0,0,6.786-4.85,17.115,17.115,0,0,0,4.232-7.063,14.021,14.021,0,0,0-.107-8.153,17.228,17.228,0,0,0-4.336-6.991,24.66,24.66,0,0,0-6.84-4.764,29.751,29.751,0,0,0-8-2.525,36.542,36.542,0,0,0-8.4-.466,34.783,34.783,0,0,0-8.267,1.562,27.014,27.014,0,0,0-7.53,3.73,20.828,20.828,0,0,0-5.755,6.078,15.081,15.081,0,0,0-2.206,8.038A15.4,15.4,0,0,0,331.291,245.133Z" transform="translate(-327.604 -216.914)" fill="#263238"/>
            </g>
            <g id="Group_259750" data-name="Group 259750" transform="translate(12.439 17.036)">
              <path id="Path_113069" data-name="Path 113069" d="M369.67,239.12a2.724,2.724,0,1,0,2.724-2.724A2.724,2.724,0,0,0,369.67,239.12Z" transform="translate(-345.324 -236.396)" fill="#263238"/>
              <path id="Path_113070" data-name="Path 113070" d="M355.75,239.12a2.724,2.724,0,1,0,2.724-2.724A2.723,2.723,0,0,0,355.75,239.12Z" transform="translate(-343.576 -236.396)" fill="#263238"/>
              <path id="Path_113071" data-name="Path 113071" d="M341.829,239.12a2.724,2.724,0,1,0,2.724-2.724A2.724,2.724,0,0,0,341.829,239.12Z" transform="translate(-341.829 -236.396)" fill="#263238"/>
            </g>
          </g>
        </g>
      </g>
    </g>
    <g id="typescript-2" transform="translate(890 343.131)">
      <path id="Path_136542" data-name="Path 136542" d="M0,0H30.314V30.314H0Z" fill="#017acb"/>
      <path id="Path_136543" data-name="Path 136543" d="M121.251,233.285H122.7v2.51h-3.931v11.169l-.1.028c-.142.038-2.013.038-2.416,0l-.322-.028V235.8H112v-2.51l1.246-.014c.682-.009,2.435-.009,3.894,0S120.445,233.285,121.251,233.285Zm11.1,12.5a4.863,4.863,0,0,1-3.77,1.355,4.831,4.831,0,0,1-1.587-.133,5.4,5.4,0,0,1-3-1.871,4.61,4.61,0,0,1-.526-.853c0-.019.047-.062.109-.09s.189-.109.294-.171.294-.175.422-.242.5-.284.819-.478a4.74,4.74,0,0,1,.649-.351c.033,0,.095.066.142.147a3.858,3.858,0,0,0,1.416,1.3,4.3,4.3,0,0,0,1.236.261,3.311,3.311,0,0,0,1.085-.251,1.318,1.318,0,0,0,.63-.549c.123-.194.137-.246.133-.616a.934.934,0,0,0-.114-.592c-.265-.436-.625-.663-2.084-1.307a8.73,8.73,0,0,1-2.733-1.6,2.909,2.909,0,0,1-.744-1,2.981,2.981,0,0,1-.379-1.8,3.562,3.562,0,0,1,.081-1.113,4.686,4.686,0,0,1,.568-1.165,4.238,4.238,0,0,1,.625-.639,4.541,4.541,0,0,1,2.61-.914c.109,0,.469.019.805.043a3.837,3.837,0,0,1,2.259.824c.478.379,1.2,1.269,1.132,1.388-.047.071-1.937,1.331-2.06,1.369-.076.024-.128,0-.232-.128-.644-.772-.9-.938-1.53-.976a1.367,1.367,0,0,0-.98.223,1.071,1.071,0,0,0-.464.966c0,.644.251.947,1.16,1.4.587.289,1.089.526,1.127.526.057,0,1.274.606,1.592.8a3.866,3.866,0,0,1,2.236,3.292A3.7,3.7,0,0,1,132.349,245.78Z" transform="translate(-106.695 -222.059)" fill="#fff"/>
    </g>
    <g id="typescript-2-2" data-name="typescript-2" transform="translate(1268 338.131)">
      <path id="Path_136542-2" data-name="Path 136542" d="M0,0H30.314V30.314H0Z" fill="#017acb"/>
      <path id="Path_136543-2" data-name="Path 136543" d="M121.251,233.285H122.7v2.51h-3.931v11.169l-.1.028c-.142.038-2.013.038-2.416,0l-.322-.028V235.8H112v-2.51l1.246-.014c.682-.009,2.435-.009,3.894,0S120.445,233.285,121.251,233.285Zm11.1,12.5a4.863,4.863,0,0,1-3.77,1.355,4.831,4.831,0,0,1-1.587-.133,5.4,5.4,0,0,1-3-1.871,4.61,4.61,0,0,1-.526-.853c0-.019.047-.062.109-.09s.189-.109.294-.171.294-.175.422-.242.5-.284.819-.478a4.74,4.74,0,0,1,.649-.351c.033,0,.095.066.142.147a3.858,3.858,0,0,0,1.416,1.3,4.3,4.3,0,0,0,1.236.261,3.311,3.311,0,0,0,1.085-.251,1.318,1.318,0,0,0,.63-.549c.123-.194.137-.246.133-.616a.934.934,0,0,0-.114-.592c-.265-.436-.625-.663-2.084-1.307a8.73,8.73,0,0,1-2.733-1.6,2.909,2.909,0,0,1-.744-1,2.981,2.981,0,0,1-.379-1.8,3.562,3.562,0,0,1,.081-1.113,4.686,4.686,0,0,1,.568-1.165,4.238,4.238,0,0,1,.625-.639,4.541,4.541,0,0,1,2.61-.914c.109,0,.469.019.805.043a3.837,3.837,0,0,1,2.259.824c.478.379,1.2,1.269,1.132,1.388-.047.071-1.937,1.331-2.06,1.369-.076.024-.128,0-.232-.128-.644-.772-.9-.938-1.53-.976a1.367,1.367,0,0,0-.98.223,1.071,1.071,0,0,0-.464.966c0,.644.251.947,1.16,1.4.587.289,1.089.526,1.127.526.057,0,1.274.606,1.592.8a3.866,3.866,0,0,1,2.236,3.292A3.7,3.7,0,0,1,132.349,245.78Z" transform="translate(-106.695 -222.059)" fill="#fff"/>
    </g>
  </g>
</svg>
