<svg xmlns="http://www.w3.org/2000/svg" viewBox="0 0 286.81 286.63"><defs><style>.cls-1{fill:#ffe5bf;}.cls-2{fill:#ee9156;}</style></defs><g id="Layer_2" data-name="Layer 2"><g id="Layer_1-2" data-name="Layer 1"><path class="cls-1" d="M60.24,222.38c-.63,1.1-1.15,2.27-1.7,3.42,0,.1.07.29.13.43a2.29,2.29,0,0,0,.21.34h51.45l9.43-25.14.91.17c2,5.13,4,10.26,6.49,16.47,5.23-13.91,10.08-26.82,14.92-39.72l1-.13L157.75,218l6.85-17.55c4,9.4,7.67,17.83,11.23,26.13h50.81c-27.94-49-55.55-97.39-83.54-146.44Z"/><path class="cls-2" d="M200.76,94.15c7.8.18,18-6.52,17.6-18.05,0-10.25-7.55-17.74-17.82-17.68-9.94,0-17.32,7.56-17.38,17.65A17.62,17.62,0,0,0,200.76,94.15Z"/><path d="M143.52,286.53c-38.87,0-77.73-.17-116.59.1-12.62.08-22.8-8.47-25.46-18.06a35.5,35.5,0,0,1-1.4-9.42Q0,143.31,0,27.46c0-13,7.29-23,19-26.26A36.21,36.21,0,0,1,28.52.05Q143.44,0,258.33,0c6.55,0,12.74,1.17,18,5.31A26,26,0,0,1,286.8,26.9q-.09,48.93,0,97.85,0,67.4,0,134.79c0,8.92-3.18,16.2-10.19,21.71-5,3.9-10.67,5.35-17,5.33C220.92,286.48,182.22,286.53,143.52,286.53Zm-1.44-108.18,1-.13L157.75,218l6.85-17.55c4,9.4,7.67,17.83,11.23,26.13h50.81c-27.94-49-55.55-97.39-83.54-146.44L60.24,222.38c-.63,1.1-1.15,2.27-1.7,3.42,0,.1.07.29.13.43a2.29,2.29,0,0,0,.21.34h51.45l9.43-25.14.91.17c2,5.13,4,10.26,6.49,16.47C132.39,204.16,137.24,191.25,142.08,178.35ZM218.36,76.1c0-10.25-7.55-17.74-17.82-17.68-9.94,0-17.32,7.56-17.38,17.65a17.62,17.62,0,0,0,17.6,18.08C208.56,94.33,218.79,87.63,218.36,76.1Z"/></g></g></svg>